<svg xmlns="http://www.w3.org/2000/svg" viewBox="0 0 148 30">
  <title>logo</title>
  <g id="40c954c0-07e1-4d0c-b2a5-05fea87db906" data-name="Capa 2">
    <g id="ada2ab96-6cf1-4b4b-8740-cf5b6102a924" data-name="Pagina Inicial - Movil">
      <g>
        <path d="M47.2,24.9V4.7h3.6l3.1,7.9,2.2,5.9h.1c-.1-2.1-.4-5.7-.4-9.4V4.7h3.5V24.9H55.7l-3.1-7.7a62.1,62.1,0,0,1-2-6.1h-.1c.1,2,.2,5.2.2,9.2v4.6Z" style="fill: #fff"/>
        <path d="M71.3,16H66.7v5.5h5.2v3.4H62.7V4.7h8.8V8.1H66.6v4.7h4.6V16Z" style="fill: #fff"/>
        <path d="M76.8,8.3H73.2V4.7H84.3V8.3H80.7V24.9H76.8Z" style="fill: #fff"/>
        <path d="M89,24.9,85.5,4.6h4.1l1,8.1c.3,2.3.5,4.6.7,7.1h.1c.3-2.5.7-4.7,1.1-7.1l1.4-8.1h3.2l1.4,8c.4,2.3.7,4.5,1,7.2h.1c.3-2.6.5-4.8.8-7.2l1-8h3.8l-3.6,20.3H97.5l-1.2-6.6c-.3-1.9-.6-4.2-.9-6.6h-.1c-.4,2.4-.7,4.7-1.1,6.7L92.8,25Z" style="fill: #fff"/>
        <path d="M119.3,14.4c0,7.6-2.7,10.7-6.6,10.7s-6.4-4.9-6.4-10.4S108.5,4.4,113,4.4,119.3,9.8,119.3,14.4Zm-8.9.4c0,4.6.9,6.9,2.5,6.9s2.3-3,2.3-7.1-.5-6.8-2.3-6.8S110.4,10.4,110.4,14.8Z" style="fill: #fff"/>
        <path d="M121.8,5a20.9,20.9,0,0,1,4.3-.4c2.2,0,4.1.3,5.4,1.5a5.4,5.4,0,0,1,1.6,4.2,5.3,5.3,0,0,1-3.1,5.1h0c1.4.5,2.1,1.8,2.5,4a33.9,33.9,0,0,0,1.3,5.5h-4.1a27.3,27.3,0,0,1-1-4.8c-.4-2.5-1-3.2-2.3-3.2h-.6V25h-3.9V5Zm3.9,8.8h.7c1.7,0,2.7-1.4,2.7-3.2s-.7-2.9-2.5-3h-.9v6.2Z" style="fill: #fff"/>
        <path d="M135.9,4.7h3.9v9.1h.1l1-2.6,2.7-6.5h4.3l-4.5,8.8L148,25h-4.3l-2.9-8.4-.9,1.7V25h-4V4.7Z" style="fill: #fff"/>
        <g id="0d5fdfed-72f1-42e0-afe1-ed7c426f5212" data-name="Logo">
          <g id="28e6f86b-3717-43a4-aeaf-25200692b463" data-name="xamagon">
            <path id="6b2d3e60-1adb-4594-b0f0-9a4b9b1f5b2e" data-name="Logo-2" d="M9.9,0A2.8,2.8,0,0,0,7.6,1.3L.3,13.9a3,3,0,0,0,0,2.6L7.6,28.9A2.6,2.6,0,0,0,9.9,30H24.5a2.6,2.6,0,0,0,2.3-1.1l7.3-12.5a2.4,2.4,0,0,0,0-2.6L26.8,1.3A2.8,2.8,0,0,0,24.5,0ZM10,7.1h2.6l.3.3L17.2,15v.2h0l4.3-7.7.3-.3h2.5c.2.1.4.4.3.6l-4.2,7.5,4.2,7.4c.1.2-.1.4-.3.5H21.8l-.3-.2-4.3-7.5h-.1L12.8,23l-.3.2H10c-.2,0-.3,0-.4-.2a.4.4,0,0,1,.1-.3l4.2-7.4L9.7,7.8a.4.4,0,0,1,.2-.5h0Z" style="fill: #00b0b0"/>
          </g>
        </g>
      </g>
    </g>
  </g>
</svg>
