<svg xmlns="http://www.w3.org/2000/svg" viewBox="0 0 181 181">
  <title>Recurso 4</title>
  <g id="ec1bd993-fdd8-4a4d-ae63-0a2c0da435d8" data-name="Capa 2">
    <g id="ab6ca290-61d1-457e-8d2a-1a1514586217" data-name="Pagina Movil">
      <g id="24e5570e-7c31-4026-935c-1f885a8522e7" data-name="La agencia">
        <g>
          <g id="2d5cfc84-f3e7-41a0-ab72-e7920ec81645" data-name="#2c3e50ff">
            <path d="M85.2,0H95.8A90.8,90.8,0,0,1,181,85.2V95.8A90.8,90.8,0,0,1,95.8,181H85.2A90.8,90.8,0,0,1,0,95.8V85.2A90.8,90.8,0,0,1,85.2,0m2.6,18.8c-5.9.2-12,2.6-15.5,7.5s-4.5,12-4.2,18.4c-2.1.1-5.1-.3-6.2,2s1.7,3,3.2,3.7a36.8,36.8,0,0,0-1.5,8.9,28.4,28.4,0,0,0,3.5,13,26.9,26.9,0,0,0,42.7,5.6,27.5,27.5,0,0,0,7.7-18.5l-.2-.2a26.9,26.9,0,0,0-1.3-8.9c1.8-.6,4.4-2.9,2.5-4.8s-3.6-.9-5.5-.9c.3-6.5-.3-13.5-4.5-18.8s-9.5-6.8-15.2-7.1l-2.6-1-2.9,1M74.4,90.1c-3.4.8-5.9,3.5-7.6,6.4a46.2,46.2,0,0,0-5.1,15.9c-1.8,11.4-3.1,22.9-4.2,34.3-.2,7.8,6,15.4,14.1,15.4v-.3c6.4.5,12.8.2,19.2.1h14.6c1.3-.1,3,.3,4-.9l.2,1c8-.1,14.3-7.7,14-15.4-1.1-13.1-2.3-26.3-4.2-39.3-.9-5.6-2.4-11.7-7-15.4s-8.4-2.2-12.6-2.1-6.8-.2-10.2,0a59.8,59.8,0,0,0-7.5,0A34.4,34.4,0,0,0,74.4,90.1Z" style="fill: #2c3e50"/>
          </g>
          <g id="d76e6935-0c8e-4dfb-999c-c4023ecbd2e0" data-name="#efd050ff">
            <path d="M87.8,18.8l2.9-1c-.3,9.3,0,18.7-.1,28h-5l-1.1-.9a90.3,90.3,0,0,1,.7-18A27.6,27.6,0,0,1,87.8,18.8Z" style="fill: #efd050"/>
          </g>
          <g id="bc6d3ff9-2afa-4c34-9b9d-3cbc0244b09b" data-name="#edc92cff">
            <path d="M90.6,17.8l2.6,1c4.2,8.3,3.3,17.8,3.5,26.8l-6.2.2C90.6,36.5,90.3,27.1,90.6,17.8Z" style="fill: #edc92c"/>
            <path d="M72.3,26.4c3.5-4.9,9.6-7.3,15.5-7.5a27.6,27.6,0,0,0-2.6,8.1,90.3,90.3,0,0,0-.7,18l1.1.9c-5.8-.4-11.6-.8-17.4-1.1C67.8,38.4,68.4,31.6,72.3,26.4Z" style="fill: #edc92c"/>
          </g>
          <g id="5a7b2ae2-298d-41de-ad1c-67d018df7589" data-name="#e0b500ff">
            <path d="M93.2,18.8c5.7.3,11.6,2.4,15.2,7.1s4.8,12.3,4.5,18.8c-5.4.1-10.8.7-16.2.9C96.6,36.7,97.4,27.1,93.2,18.8Z" style="fill: #e0b500"/>
          </g>
          <g id="0c947a2c-0cb5-470c-a50c-fc61e3a0688b" data-name="#dbb626ff">
            <path d="M61.8,46.7c1.1-2.3,4.1-1.9,6.2-2,5.8.3,11.6.7,17.4,1.1h5l6.2-.2c5.4-.2,10.8-.8,16.2-.9,1.8,0,3.9-.1,5.5.9s-.7,4.2-2.5,4.8a31.9,31.9,0,0,1-6.7,1.8c-7.7,1.3-15.5,1.2-23.3,1.3s-14.3-.5-20.9-3C63.5,49.7,61.8,48.6,61.8,46.7Z" style="fill: #dbb626"/>
          </g>
          <g id="a935449f-b5d3-4229-9cc3-ad1973084200" data-name="#492a15ff">
            <path d="M65.1,50.4C71.7,52.9,79,53,86,53.4a66,66,0,0,1-22.4,5.8A36.8,36.8,0,0,1,65.1,50.4Z" style="fill: #492a15"/>
            <path d="M109.3,52.2a31.9,31.9,0,0,0,6.7-1.8,26.9,26.9,0,0,1,1.3,8.9C114.5,57,111.9,54.6,109.3,52.2Z" style="fill: #492a15"/>
            <path d="M75.9,74.7c-1.8-2.1-.8-6.7,2.6-5.4l.6,2.1a2.4,2.4,0,0,0-2.1-.8c-.7,1.8,1.3,3.1,2.9,3.3s2.3-1.6,3.3-2.6,5.5-2.9,7.4-.5c1.5-1.9,4.4-1.8,6.2-.5s1.8,2,2.7,2.9,4.3.3,4.7-1.6-1.6-.8-2.3-.1l.6-2.1a2.5,2.5,0,0,1,3.4,2.1c.3,2.6-1.7,4.9-4,5.8-3.9,1.4-9,.8-11.4-2.9C87.4,78.9,79.4,79.1,75.9,74.7Z" style="fill: #492a15"/>
          </g>
          <g id="5e374392-1f90-4777-93a5-2a15b4914b5d" data-name="#e9c29cff">
            <path d="M86,53.4c7.8-.1,15.6.1,23.3-1.3,2.6,2.4,5.2,4.8,7.9,7.1l.2.2a27.5,27.5,0,0,1-7.7,18.5,26.9,26.9,0,0,1-42.7-5.6,28.4,28.4,0,0,1-3.5-13A66,66,0,0,0,86,53.4m-5.2,6.1c-2.9,1.4-2.6,6.5.6,7.4s6.1-2.6,4.6-5.4a3.7,3.7,0,0,0-5.2-2m15.7.2c-2.7,1.5-2.3,6,.6,7.2s5.9-1.9,5-4.7a3.7,3.7,0,0,0-5.6-2.5m-20.5,15c3.5,4.4,11.4,4.2,14.6-.5,2.4,3.7,7.5,4.3,11.4,2.9,2.3-.9,4.4-3.2,4-5.8a2.5,2.5,0,0,0-3.4-2.1l-.6,2.1c.7-.7,2.4-1.8,2.3.1s-3.2,3.1-4.7,1.6-1.6-2.2-2.7-2.9-4.7-1.4-6.2.5c-1.9-2.3-5.6-1.6-7.4.5s-1.7,2.6-3.3,2.6-3.5-1.4-2.9-3.3a2.4,2.4,0,0,1,2.1.8l-.6-2.1C75.1,68,74.2,72.6,75.9,74.7Z" style="fill: #e9c29c"/>
            <path d="M57.4,146.7h17q-1.4,7.6-2.9,15.2v.3C63.5,162.1,57.2,154.5,57.4,146.7Z" style="fill: #e9c29c"/>
            <path d="M107.4,146.7h16.2c.2,7.8-6,15.4-14,15.4l-.2-1C108.6,156.3,108,151.5,107.4,146.7Z" style="fill: #e9c29c"/>
          </g>
          <g id="a798645a-4a17-41be-9a52-a4830c30924b" data-name="#343433ff">
            <path d="M80.8,59.6a3.7,3.7,0,0,1,5.2,2c1.5,2.8-1.5,6.6-4.6,5.4s-3.5-5.9-.6-7.4m2.1.6c-1.6.9-.7,3.8,1.2,3.2S84.9,59.2,82.8,60.1Z" style="fill: #343433"/>
            <path d="M96.4,59.7a3.7,3.7,0,0,1,5.6,2.5c.9,2.8-2.2,6-5,4.7s-3.3-5.6-.6-7.2m2,.6c-1.5,1.3.2,4,1.9,2.8S100.3,59,98.5,60.3Z" style="fill: #343433"/>
          </g>
          <g id="9d998d3e-4eb3-4e3d-8866-418d8af72539" data-name="#f6f6f6ff">
            <path d="M82.8,60.1c2.1-.9,3.5,2.6,1.2,3.2S81.2,61,82.8,60.1Z" style="fill: #f6f6f6"/>
          </g>
          <g id="7c8c6d33-f251-49d7-9fe2-b1fb4dd57eb0" data-name="#ffffffff">
            <path d="M98.5,60.3c1.8-1.3,3.8,1.6,1.9,2.8S97,61.6,98.5,60.3Z" style="fill: #fff"/>
            <path d="M87.7,98a5,5,0,0,0,5.7-.2l.3,2.8c-2.4,1.7-4.6,3.8-7,5.5Z" style="fill: #fff"/>
            <path d="M86.2,109.8l7.9-6.4.4,3.4v1.3l-9,7.3C85.7,113.5,85.9,111.7,86.2,109.8Z" style="fill: #fff"/>
            <path d="M95,110.9l.6,4.7c-3.4,2.4-6.4,5.4-9.8,7.8l-1.4.4c.2-1.7.5-3.4.7-5C88.6,116.4,91.7,113.5,95,110.9Z" style="fill: #fff"/>
            <path d="M83.8,128.2c4.1-3.2,8.1-6.5,12.1-9.8l.6,4.7c-4.5,3.5-8.9,7.3-13.4,10.9Z" style="fill: #fff"/>
            <path d="M82.7,137.4c4.9-3.7,9.4-7.7,14.2-11.4l.3,2,.3,2.3c-4.9,4.5-10.3,8.6-15.5,12.8Z" style="fill: #fff"/>
            <path d="M84.3,144.4l13.5-11,.6,4.6c-4.6,3.6-9,7.4-13.6,11l-2.7-2.4A15.3,15.3,0,0,1,84.3,144.4Z" style="fill: #fff"/>
            <path d="M86.7,150.8c4-3.3,8-6.6,12.1-9.9.2,1.6.4,3.3.7,4.9-2.9,2.9-6.2,5.3-9.2,8Z" style="fill: #fff"/>
          </g>
          <g id="fd412ef0-2b1d-43fd-a676-0e4065680167" data-name="#29636dff">
            <path d="M74.4,90.1a34.4,34.4,0,0,1,7.7-.2q-3.8,28.4-7.6,56.9h-17c1.1-11.5,2.4-23,4.2-34.3a46.2,46.2,0,0,1,5.1-15.9C68.5,93.6,71,90.9,74.4,90.1Z" style="fill: #29636d"/>
            <path d="M99.7,89.9c4.2-.1,9.1-.7,12.6,2.1s6.1,9.8,7,15.4c1.9,13,3.1,26.2,4.2,39.3H107.4C104.8,127.8,102.4,108.8,99.7,89.9Z" style="fill: #29636d"/>
          </g>
          <g id="75deb8f5-d9e9-45a8-a6ac-7960df4a84fa" data-name="#0e2c2dff">
            <path d="M82.1,89.8a59.8,59.8,0,0,1,7.5,0l-.7.6A4.8,4.8,0,0,0,87.7,98l-1,8.1-.5,3.7c-.3,1.9-.5,3.8-.7,5.7l-.4,3.3c-.2,1.7-.5,3.4-.7,5s-.3,3-.5,4.5l-.7,5.7-.4,3.5-.8,5.7c0,1.2-.7,2.5.2,3.5l2.7,2.4,1.9,1.8,3.5,3.1c.8,2.6.6,5.4.5,8.1-6.4.1-12.8.3-19.2-.1q1.5-7.6,2.9-15.2Q78.3,118.3,82.1,89.8Z" style="fill: #0e2c2d"/>
          </g>
          <g id="ab761b94-c464-4137-9f6a-5b455b3e6ca5" data-name="#17474cff">
            <path d="M89.5,89.8c3.4-.2,6.8,0,10.2,0,2.7,18.9,5.1,37.9,7.7,56.8.6,4.8,1.2,9.6,2,14.4-1,1.2-2.7.8-4,.9H90.7c.1-2.7.3-5.5-.5-8.1,3-2.7,6.3-5.1,9.2-8-.3-1.6-.5-3.3-.7-4.9l-.4-2.9-.6-4.6-.7-5.5-.3-2-.4-2.9-.6-4.7-.3-2.8-.6-4.7-.5-4.1-.4-3.4-.4-2.9-.3-2.8c1.5-1.8,1.9-4.8-.1-6.5s-2.9-.9-4.4-.9Z" style="fill: #17474c"/>
          </g>
          <g id="1cf15c7f-f609-484d-8b36-c5558dc1834d" data-name="#6fc5bcff">
            <path d="M87.7,98a4.8,4.8,0,0,1,1.1-7.6c1.5.1,3.3-.3,4.4.9s1.7,4.7.1,6.5A5,5,0,0,1,87.7,98Z" style="fill: #6fc5bc"/>
          </g>
          <g id="8bc01fc3-dec9-430a-9d81-acb93491b6b5" data-name="#8dd3d5ff">
            <path d="M86.6,106.1c2.4-1.7,4.6-3.8,7-5.5l.4,2.9-7.9,6.4Z" style="fill: #8dd3d5"/>
            <path d="M94.5,106.8l.5,4.1c-3.3,2.6-6.4,5.5-9.9,7.8l.4-3.3,9-7.3Z" style="fill: #8dd3d5"/>
            <path d="M85.8,123.4c3.4-2.4,6.4-5.4,9.8-7.8l.3,2.8c-4,3.3-8,6.6-12.1,9.8.2-1.5.3-3,.5-4.5Z" style="fill: #8dd3d5"/>
            <path d="M83.1,133.9c4.5-3.6,8.9-7.3,13.4-10.9l.4,2.9c-4.8,3.7-9.4,7.8-14.2,11.4Z" style="fill: #8dd3d5"/>
            <path d="M97.2,128l.7,5.5-13.5,11a15.3,15.3,0,0,0-2.2,2.2c-.8-1-.2-2.4-.2-3.5,5.2-4.3,10.6-8.3,15.5-12.8Z" style="fill: #8dd3d5"/>
            <path d="M84.8,149c4.5-3.6,9-7.4,13.6-11l.4,2.9c-4.1,3.2-8,6.6-12.1,9.9Z" style="fill: #8dd3d5"/>
          </g>
        </g>
      </g>
    </g>
  </g>
</svg>
