<svg xmlns="http://www.w3.org/2000/svg" viewBox="0 0 290.5 208.2">
  <title>proyecto3</title>
  <g id="40e5b13d-2bfe-4232-88a7-f12d44ebc66f" data-name="Capa 2">
    <g id="b9cd407d-52fa-4bb4-9c28-a0205d32b845" data-name="Pagina Movil">
      <g id="2e363297-c629-4a2d-912e-8c17d4ab6b61" data-name="proyecto 3">
        <path d="M145.3,208.2H0Q.1,104.1,0,0H290.5q-.1,104.1,0,208.2Z" style="fill: #b94c62"/>
        <path d="M73.7,144.8c-3.5-5.6-5.7-11.8-7.8-18a73.4,73.4,0,0,1-3.4-26.3c.6-1.4,1.9-1.3,3.1-1.3s1.6-.2,1.3-1.5A15.2,15.2,0,0,1,79.1,80.3c2.1-.4,2.1-.4,1.9-2.7-.6-8,4.8-16.1,12.5-18.4,2.4-.7,5-1.2,7.5-.4.9,2.3.9,2.3,3.6,2.3h6.7c1.7,0,1.9-.4,1.3-2a4.2,4.2,0,0,1-.6-1.6,5.7,5.7,0,0,1,1.8-3.3A19.8,19.8,0,0,1,140.2,52a23.1,23.1,0,0,1,3.8,3.8,1.4,1.4,0,0,0,2,.3c6.8-3.8,14-4.5,21.2-1.4s11.9,8.9,13.5,16.9a16.9,16.9,0,0,1,.4,4,1.4,1.4,0,0,0,1.3,1.7,16.9,16.9,0,0,1,8.6,4,22.5,22.5,0,0,1,5,6.2,12.2,12.2,0,0,1,1.4,5.8c0,.7,0,1.4,0,2.1a1.9,1.9,0,0,0,1.6,2.2,13.6,13.6,0,0,1,8.5,7.5,14.1,14.1,0,0,1,.7,9.4c-.3,1.3-.1,1.8,1.3,2.3a15.5,15.5,0,0,1,10.7,10.3,3.3,3.3,0,0,1,.1,2.3,2,2,0,0,1-1.3.9,14.9,14.9,0,0,0-4.4,2.2c-1.6,1.1-2.4.7-2.6-1.1-1.1-9.6-8.5-15.8-18-15a2.6,2.6,0,0,1-1.4-.1,1.4,1.4,0,0,1-.7-.8c-.8-2.9-3.2-4.6-5.3-6.5l-5.9-5.4c-4.1-3.7-8.1-7.6-12.2-11.2-1.5-1.3-2.7-2.8-4.1-4.2-3.5-3.4-7.1-6.8-10.8-9.9-2-1.7-4.1-3.5-6.3-5.1s-4.1-1.5-6.3.1-3.7,3.5-5.7,5.1a60.4,60.4,0,0,0-6.6,5.8c-.3.3-.7.7-1.2.4a1.3,1.3,0,0,1-.6-1.2c-.1-1.1,0-2.1-.1-3.2s-.3-2.4-1.9-2.6-1.2,1.2-2.2,1.1-1.3-1.1-2.2-1.2-1.4,1.1-2.3.9-1.5-1.2-2.5-.7-1.2,1.8-1.2,3c0,4.4,0,8.7,0,13.1a13.9,13.9,0,0,1-.2,2.9,2.7,2.7,0,0,1-1,2.1c-2.2,2.3-4.8,4.2-7.2,6.4s-5.6,4.9-8.1,7.7-1.7,3.8-.1,6.6c.4.7,1.3.9,1.5,1.7a2.4,2.4,0,0,1-.2,1.2,3.9,3.9,0,0,0,1.8,4.7c1.5,1,1.5,1.3,0,2.3s-2.6,5,0,6.9,1.4,1.4,0,2.3a3.9,3.9,0,0,0-1.7,4.7c.2.8.2,1.5-.6,1.9a4.3,4.3,0,0,1-1.4.2H75.7A6.4,6.4,0,0,1,73.7,144.8Z" style="fill: #236d58"/>
        <path d="M71.4,67.6a70.3,70.3,0,0,1,9.5-14.9,78.8,78.8,0,0,1,25.9-21.2,83.3,83.3,0,0,1,45-9A81.5,81.5,0,0,1,194.1,38c19.1,13.9,29.8,32.7,33.1,55.9a52,52,0,0,1,.6,10.2,1.8,1.8,0,0,1-1.7.7,16.9,16.9,0,0,0-5.5.9c-1.7.5-2.2.3-2.8-1.3a11.2,11.2,0,0,0-8.2-7.6c-1.9-.5-2.3-.9-2.4-2.7a10.9,10.9,0,0,0-6.5-9.7,3,3,0,0,1-1.9-2.4c-1.2-6.8-6.6-9.6-12.8-9.7-2-.7-2.6-1.3-2.5-3.5a14.7,14.7,0,0,0-2.6-9.1,14,14,0,0,0-12.7-6.1,3.7,3.7,0,0,1-3-1.4,15.5,15.5,0,0,0-9.3-4.9,16.6,16.6,0,0,0-8.8,1c-2,.8-2.5.7-3.8-1a19.2,19.2,0,0,0-13-8,19.5,19.5,0,0,0-20.5,9.9c-.5.9-1.2,1.8-1.7,2.7s-1.3,1.5-2.6.7A18.2,18.2,0,0,0,98.2,50c-6.5-.8-11.6,1.6-15.6,6.5a17.2,17.2,0,0,0-3.4,9c-.2,1.7-.6,2.1-2.4,2.1s-2.7.4-4.1.4S71.7,68.1,71.4,67.6Z" style="fill: #45b29b"/>
        <path d="M208.4,157a75.6,75.6,0,0,1-20.1,17.1,80.9,80.9,0,0,1-36.4,11.8,82.1,82.1,0,0,1-42.3-7.8,25.2,25.2,0,0,1-5-2.5c.6-1,1.6-.7,2.4-.8h18.7a16.3,16.3,0,0,0,2.9-.2c4.5-.8,6.4-3.4,5.6-8-.1-.7-.3-1.4.2-2a2.4,2.4,0,0,1,1.7-.4c6.4,0,12.8-.1,19.1.1,9.1-.1,18.2-.2,27.2,0l1.4-.2a6.6,6.6,0,0,1,1.9.2c2.6.4,5.3-2.6,3.8-5.8-.3-.7-1-1.4,0-2.1a3,3,0,0,1,1.4-.2h15.6C207.3,156.3,208,156.2,208.4,157Z" style="fill: #216854"/>
        <path d="M71.4,67.6A23.8,23.8,0,0,1,77,67c1,.1,1.5-.3,1.6-1.4.7-7.8,5.3-13.6,12.8-15.8a16.8,16.8,0,0,1,14.5,2.3c.9.6,1.2.5,1.7-.5,3.3-6.7,8.1-11.7,15.8-12.9S138.8,40,144,47.1c.8,1.1,1.4,1.3,2.7.8a16.5,16.5,0,0,1,18.5,3.5,4.9,4.9,0,0,0,3.9,1.7,14.8,14.8,0,0,1,15.1,14.9c0,1.7,0,3.2,1.9,3.9,3.6,1.7,4.6,4.9,5.1,8.4a1.3,1.3,0,0,1-.6,1.5,18.1,18.1,0,0,0-9.2-3.8c-1.1-.1-1.1-.8-1.1-1.6a21.6,21.6,0,0,0-5.2-14.8,21.2,21.2,0,0,0-14.4-7.7,22.2,22.2,0,0,0-15.2,3.6c-.8.5-1.2.2-1.7-.4-4.2-5.8-9.9-8.6-16.9-8.2a17.5,17.5,0,0,0-14.5,8.6c-.6.3-1,0-1.5-.3a6.4,6.4,0,0,0-5.9-.8,2.2,2.2,0,0,1-1.7,0,6.1,6.1,0,0,1-1.2-1.4A5.5,5.5,0,0,0,97,52.5a5.4,5.4,0,0,0-5,3.4c-.5,1.3-.3,1.6,1.1,1.7h6.4c.7,0,1.5-.1,1.8.9s-.1.5-.4.5c-7.9-.3-13.8,2.9-17.4,9.9A14.5,14.5,0,0,0,82,78.7c.3,1.4,0,1.9-1.6,2.1a14.4,14.4,0,0,0-12.3,18c.3,1.3.1,1.5-1.1,1.2a7.3,7.3,0,0,0-4.4.5A60.2,60.2,0,0,1,64.8,85c1.7-5.6,3.4-11.2,6.1-16.4Z" style="fill: #308b74"/>
        <path d="M208.4,157H189.3c-.9.4-1.5-.2-2-.6s-.1-1.2.5-1.6a4.2,4.2,0,0,0,.3-7.2c-1.5-1-1.6-1.3,0-2.1s2.5-6.1-.1-7.2-1.3-1.2,0-2.1c2.9-1.8,2.8-5.4-.2-7.2-1.1-.7-1.1-1.2-.2-1.9,2.5-1.8,2.9-2.8,1.9-5.8a1.6,1.6,0,0,1-.1-.8c.1-.6.6-.9,1-1.4a8.5,8.5,0,0,0,1.1-2.4,1.4,1.4,0,0,1,.9-1.1c9.9-1.5,18.1,4.1,20,13.8.2,1-.4,2.4.5,2.8s1.5-1,2.3-1.4a16.8,16.8,0,0,1,4.6-1.7,3,3,0,0,1,3.8-.1,77,77,0,0,1-10.7,21.9A54.3,54.3,0,0,1,208.4,157Z" style="fill: #134435"/>
        <path d="M134.6,165a8.2,8.2,0,0,1,.2,6.2c-1.4,3.4-4.3,4.3-7.5,4.3H104.7a70.9,70.9,0,0,1-14-9.8,33.7,33.7,0,0,1-4.1-4,2.2,2.2,0,0,1,.1-2.5,9.5,9.5,0,0,1,8.6-5.2c1.2,0,2.5.1,3.2-1.2s.5-.7.9-.9a6.6,6.6,0,0,1,4-2,4.8,4.8,0,0,1,2.9.4,2.5,2.5,0,0,1,1.2.4l1.5.6a9.4,9.4,0,0,1,2.4,2.7c.3.6.8.6,1.4.4a9.4,9.4,0,0,1,7.4,1c1.1,1.1,2.5,1.9,3.2,3.4a5.1,5.1,0,0,1,.5,1.8c.1.8.4,1.1,1.3.9a10.1,10.1,0,0,1,5.3-.3l2.2.9C133.6,162.9,134.8,163.5,134.6,165Z" style="fill: #134435"/>
        <path d="M223.9,129h-3.8a16,16,0,0,0-6.3-9.7,14.3,14.3,0,0,0-5.7-2.5c-1-.2-1.4-.4-1-1.5,3-8.6-2.4-16-9.2-17.5a1.4,1.4,0,0,1-1.3-1.7,32.1,32.1,0,0,0-.1-4.5c-.4-3.3-2.2-5.8-4.2-8.2l-1.7-1.9c.2-4.1-1.9-7.1-4.5-9.9,6.3-.5,12.8,3.6,13.5,10.6.1.7.5,1,1.1,1.2,4.6,2.1,7.1,5.6,7.3,10.7,0,.8.2,1.4,1.1,1.6,4.9,1.1,8.2,3.9,9.5,8.8.2.7.5.8,1.2.6a17.7,17.7,0,0,1,8-1.2A73.3,73.3,0,0,1,223.9,129Z" style="fill: #389a82"/>
        <path d="M99,153.2c-.5,1.3-1.2,1.7-2.7,1.6a8.8,8.8,0,0,0-9.7,7,72.1,72.1,0,0,1-12.9-16.9,2.8,2.8,0,0,1,2-.4H99c1.3-.2,1.9.9,2.7,1.6a.7.7,0,0,1-.2,1.1C98.9,148.4,98.9,150.7,99,153.2Z" style="fill: #216854"/>
        <path d="M190.9,119.5l-1,1c-.6.3-1-.2-1.4-.5-2.2-1.3-3.5-1.1-5.4.6a2.3,2.3,0,0,1-1.6.7c-2.2.5-4.5,0-6.7.1h-57a50.2,50.2,0,0,0-6.2.2,11.3,11.3,0,0,1-4-.2,2.5,2.5,0,0,1-1.7-.8c-2-1.7-3.6-1.8-5.7-.2-.4.3-.7.7-1.2.4a5.3,5.3,0,0,1-1.5-1.2,2.2,2.2,0,0,1,.9-1.6c3.4-3,6.5-6.1,10-9,1.9-1.6,3.6-3.2,5.4-5s6.4-6.1,9.7-9l5-4.7c3.5-3.2,7.1-6.5,10.5-9.8s7-3.2,10.3.1,4.7,4,7,6.1,2.3,2.6,3.5,3.7,2.5,2.6,4,3.7,3.6,3.4,5.4,4.9,3.4,2.7,5,4.2c5.2,5,10.7,9.7,15.8,14.7C190.4,118.4,190.9,118.8,190.9,119.5Z" style="fill: #4c2e0b"/>
        <path d="M190.9,119.5a72.7,72.7,0,0,1-6.7-6L152.6,84.3l-4.6-4c-2.5-2.2-5.5-2-8.1.3L126.1,93.5c-5.7,5.3-11.2,10.6-17.1,15.7-3.9,3.4-7.5,7.1-11.5,10.3-2.2-2.8-2.1-5.8.5-8.3,4.6-4.5,9.5-8.7,14.3-13l1.4-1.5c1.4-1.9,1.5-4,1.5-6.2-.1-3.8,0-7.6,0-11.5a3.5,3.5,0,0,1,.7-2.5,2.4,2.4,0,0,1,2.3,1.3c.8.5.7,1.3.7,2,0,2.9,0,5.9,0,8.8a3,3,0,0,0,.3,1.8,2.2,2.2,0,0,0,.5-1.8c0-3.2,0-6.5,0-9.7,0-.8-.1-1.6.7-2.2a2.5,2.5,0,0,1,2.3,1.5c.8.5.7,1.3.7,2a45.8,45.8,0,0,0,.2,6,52.2,52.2,0,0,0,.2-6.8,3.8,3.8,0,0,1,.7-2.7c1.9,0,2.6.6,2.7,2.5s0,3.1,0,5.2l5.2-4.7c2.5-2.3,5-4.8,7.6-7s5.5-2.2,8.2.1c8,7,15.8,14.3,23.6,21.5l17.7,16.4a7.8,7.8,0,0,1,2.9,5A6.6,6.6,0,0,1,190.9,119.5Z" style="fill: #985f1a"/>
        <path d="M99,120.8c2.7-2.9,5.5-2.9,8,0,1.6.8,1.4,2.2,1.2,3.5a3.9,3.9,0,0,1-1.8,3.2c-.9.6-.1.8.1,1.1a4.8,4.8,0,0,1,1.6,5.1,4.1,4.1,0,0,1-2.4,3.5c.2.3.6.3.8.7a4.6,4.6,0,0,1,1.6,4.8,4.6,4.6,0,0,1-1.7,3.4c-.3.2-.7.4-.2.8a7.3,7.3,0,0,1,1.8,2.5,1.4,1.4,0,0,1-.5,2l-1.1-.6a3.8,3.8,0,0,1-1.1-1.3,2.7,2.7,0,0,0-2.7-1.2,2.5,2.5,0,0,0-2.2,2.2,10.3,10.3,0,0,1-.6,1.8l-.8.8c-1.4-2.6-.5-4.8,2.7-6.7a7.5,7.5,0,0,1-2.7-2c-1.4-3.5-.7-5.4,2.6-7.2-5-2.5-3.9-7.8,0-9.3C98.3,125.9,97.7,124.3,99,120.8Z" style="fill: #e1b178"/>
        <path d="M100.9,59l.3-.3c.1-1.9.6-2.5,2.3-2.6,3.3-1.3,6.3-1.2,8.9,1.4a9,9,0,0,1,1.5,3.3c.1.8.1,1.2-.9,1.2H101.4c-.8,0-1-.3-.9-1Z" style="fill: #fefefe"/>
        <path d="M116.9,68.9c3.4-1.4,6.8,0,7.6,3.3.2,1,.2,1.5-1.1,1.4h-7.2c-2.5,0-2.5-.1-1.5-2.5S115.2,69.1,116.9,68.9Z" style="fill: #fdfdfd"/>
        <path d="M116.9,68.9a6.5,6.5,0,0,0-2.1,2.2c-.9-.7-1.9-.2-2.9-.3h-3.7c-2.1,0-2.3-.4-1.4-2.3s6.6-4.5,9.3-.9Z" style="fill: #d7d7d7"/>
        <path d="M115.9,76.6c0,5.4-.1,10.8.1,16.2a3.9,3.9,0,0,1-2.2,4q0-8.8,0-17.5A2.3,2.3,0,0,1,115.9,76.6Z" style="fill: #4d2f0b"/>
        <path d="M120.4,76.6q0,6.5,0,12.9a3.4,3.4,0,0,1-.1,1c-.3.9-1,1.8-1.8,1.8s-.4-1.2-.4-1.8c0-4.2,0-8.4,0-12.6C118.8,77.3,119.4,76.5,120.4,76.6Z" style="fill: #4d2f0b"/>
        <path d="M124.6,76.6c0,3,0,6,0,9,0,.5.1,1.1-.3,1.5s-.7,1.1-1.3,1-.3-.9-.3-1.4c0-2.9,0-5.8,0-8.6A3,3,0,0,1,124.6,76.6Z" style="fill: #4c2e0b"/>
        <path d="M134.6,165a12.5,12.5,0,0,0-2.3-2.3,3,3,0,0,1-.6-1.9,25.4,25.4,0,0,1,0-4.7,24.6,24.6,0,0,1,0-4.2,29.7,29.7,0,0,1,0-4.8,25.1,25.1,0,0,1,0-4.2c-.2-1.6,0-3.2,0-4.8a24.7,24.7,0,0,1,0-4.2,27.6,27.6,0,0,1,0-5.2,2.1,2.1,0,0,1,.5-1.5,3.3,3.3,0,0,1,2.3-.5h18.7a3.6,3.6,0,0,1,2.3.4,1.9,1.9,0,0,1,.5,1.5,28.4,28.4,0,0,1,0,5.2,25.4,25.4,0,0,1,0,4.2,29.9,29.9,0,0,1,0,4.8,22.3,22.3,0,0,1,0,4.2c-.3,1.6.3,3.2,0,4.8a25.3,25.3,0,0,1,0,4.2,30.8,30.8,0,0,1,0,4.8c-.1,1.4.6,2.9-.7,4.1Z" style="fill: #331d07"/>
        <path d="M182,120.8c2.5-2.8,5-2.9,7.9-.3s.8,5.6-2.6,7.5c2.1.9,3.4,2.3,3.4,4.6s-1.3,3.7-3.5,4.6c2.2.9,3.5,2.2,3.5,4.6s-1.3,3.7-3.4,4.7c2.1.9,3.4,2.3,3.4,4.5s-1.2,3.8-3.4,4.7l2,1.3a4.8,4.8,0,0,1,.8,5.6c-1.2,2.3-3.3,2.7-5.6,2.3s-3.5-1.5-3.7-4.1.8-3.6,2.2-4.9c-.1-.8-.9-1-1.2-1.5a5,5,0,0,1-1-2.7c-.5-2.2.7-3.6,2.2-4.9s-.4-.8-.6-1.1a5,5,0,0,1-1.5-3c-.6-2,.6-3.4,1.7-4.8s.7-.8.1-1.3a4,4,0,0,1-1.6-2.6c-.9-2.3.1-4,1.7-5.5s.2-.9-.2-1.2a4.8,4.8,0,0,1-1.7-2.9C180.5,122.9,180.4,121.6,182,120.8Z" style="fill: #e1b178"/>
        <path d="M181.3,160.8a5.3,5.3,0,0,0,3.2,4.1H155.3v-4.2a2.3,2.3,0,0,1,2-.7h21.8A2.2,2.2,0,0,1,181.3,160.8Z" style="fill: #4c2e0b"/>
        <path d="M103.5,56a10.2,10.2,0,0,0-2.3,2.6c-1.2-.6-2.4-.2-3.6-.2H92.2c-1.2.1-1.6-.3-1.3-1.5a6.6,6.6,0,0,1,6-5.1A6.3,6.3,0,0,1,103.5,56Z" style="fill: #d7d7d7"/>
        <path d="M132.3,147.1v4.7a2.1,2.1,0,0,1-2,.8H111.4a7.6,7.6,0,0,1-2.8-.7l-1.1-.4c.5-1.9-.7-3.1-1.8-4.3.4-.8,1.1-.8,1.8-.8h23A2.1,2.1,0,0,1,132.3,147.1Z" style="fill: #985e1a"/>
        <path d="M108.6,151.8h23.6V156a2.2,2.2,0,0,1-1.9.7h-7.8a8.2,8.2,0,0,1-2.8-.7c-2.6-1.2-5.2-1.7-7.9-.4-.8.4-.9-.2-1.1-.7A7,7,0,0,0,108.6,151.8Z" style="fill: #4c2e0b"/>
        <path d="M119.8,156h12.4v4.7a1.4,1.4,0,0,1-1.5.6,17.3,17.3,0,0,0-5.5.1,1.7,1.7,0,0,1-1.8-.7A10.5,10.5,0,0,0,119.8,156Z" style="fill: #985f1a"/>
        <path d="M99.8,152.4c-.4-1.6-.3-3.1,1.1-4.2a3.4,3.4,0,0,1,5.5,2.6A7.2,7.2,0,0,0,99.8,152.4Z" style="fill: #985f1a"/>
        <path d="M123.4,160.8h8.9v1.9c-2.9-1.7-5.7-1.5-8.5.5Z" style="fill: #4b2e0b"/>
        <path d="M170.1,116.6H118.5a.8.8,0,0,1,.2-1,1.1,1.1,0,0,1,1-.3c4.8-.2,9.6,0,14.5-.2h-11c-.8,0-1.7.2-2.3-.8a3.9,3.9,0,0,1,4-3.3h38.6c2.3.1,4.5,1.9,4.7,3.8s-2.7.2-3.9.5a28.7,28.7,0,0,1,5.2.2C170,115.8,170.2,116.1,170.1,116.6Z" style="fill: #985f1a"/>
        <path d="M159.5,106.6h-30c-.4-1.6,1.3-1.8,1.9-2.7h.5c2.9-.2,5.7-.1,8.1-.1h-5.3c-.6,0-1.2.1-1.7-.4s.7-1.1,1.2-1.5h20.1c2.3.5,3.5,2.4,5,3.9A.6.6,0,0,1,159.5,106.6Z" style="fill: #985f1a"/>
        <path d="M143.8,92.9h7.8a4.2,4.2,0,0,1,3.3,1.2l3.5,3.6h-9.2c-1-.6-2.5-.8-2.4-2.5s1.1-.7,1.8-.7h-3.2a6.6,6.6,0,0,0-2.6,0c-1.7-.3-3.3.2-5,0,1.2.4,2.6-.5,3.5.7s-1.3,1.9-2.3,2.5h-7.4c-.5-.5-.3-1.1,0-1.6a12.7,12.7,0,0,1,3.2-2.9c2.2-.4,4.4-.1,6.6-.2A6.6,6.6,0,0,0,143.8,92.9Z" style="fill: #714612"/>
        <path d="M118.9,116l-.3.6H110l-.2-.4,5.7-5.2c.3-.3.9-.2,1.4-.2H164q.3.1,0,.3c-12.1,0-24.2.1-36.2-.1a7.2,7.2,0,0,0-6.7,3.3l-.3.4C120.1,115,119,114.7,118.9,116Z" style="fill: #714612"/>
        <path d="M159.5,106.6l-5.1-4.7h8a2.3,2.3,0,0,1,1.8.6l4,4.1Z" style="fill: #714612"/>
        <path d="M107.6,124.6a6.7,6.7,0,0,0-.6-3.9h67.9a.5.5,0,0,1-.1.6,2.9,2.9,0,0,1-2.1.5c-13.1,0-26.2.1-39.3-.1l-15-.2h-1.9c-2.6.2-4.5,1.6-6.3,3.4A1.8,1.8,0,0,1,107.6,124.6Z" style="fill: #714512"/>
        <path d="M164,111.1v-.3h7.5a3.3,3.3,0,0,1,2.9,1.2c.8,1,2.1,1.5,2.8,2.6a1.5,1.5,0,0,1-1.5.7,27.5,27.5,0,0,1-7-.3l-.5-.4C166.7,113.6,165.7,111.9,164,111.1Z" style="fill: #714612"/>
        <path d="M134.2,101.9l-1.3,1.2-.3.4c-1.8.5-3.6.2-5.2.3,1.2.4,2.7-.7,3.9.6l-1.9,2.2h-8.7l3.8-4.1a2.5,2.5,0,0,1,1.9-.6Z" style="fill: #714612"/>
        <path d="M147,95.5a9.6,9.6,0,0,1,2.2,2.2H139.1a9.8,9.8,0,0,1,2.2-2.2c.1-.4.2-.8.7-.9h4.3C146.8,94.6,146.9,95,147,95.5Z" style="fill: #985f1a"/>
        <path d="M148.5,88.6h-8.6c1-1.7,2.7-2.5,3.8-3.7s.7-.2,1,.1A21.8,21.8,0,0,1,148.5,88.6Z" style="fill: #714512"/>
        <path d="M174.9,121.1v-.3H182a6.2,6.2,0,0,0-.6,3.8c-.6,1-1.5.7-2.3.7a34.4,34.4,0,0,1-3.8-3A1.2,1.2,0,0,1,174.9,121.1Z" style="fill: #714512"/>
        <path d="M168.4,114.7h8.7l1.6,1.5v.4h-8.6l-.6-.6C169.1,115.6,168.2,115.6,168.4,114.7Z" style="fill: #7e5220"/>
        <path d="M143.8,92.9c-1.5.7-3.1.2-4.7.3h-4.3c1.5-.6,3.1-.2,4.7-.3Z" style="fill: #714612"/>
        <path d="M131.7,96.1v1.6h-1.3A2.7,2.7,0,0,1,131.7,96.1Z" style="fill: #714612"/>
        <path d="M99.3,115.9l-.4-.3c-.2-.3,0-.6.2-.8l2.3-2.2,9.7-8.5c.4-.3.7-1,1.3-.5s0,1.1-.4,1.5l-8.9,7.8-2.7,2.5A1.6,1.6,0,0,1,99.3,115.9Z" style="fill: #b97e3d"/>
        <path d="M121.5,92.5c-.4,0-.6-.1-.7-.4s.1-.7.4-1l5.6-5.2,5.8-5.2c.4-.4.9-1.2,1.6-.6s-.2,1.1-.6,1.5L122.1,92Z" style="fill: #b97e3d"/>
        <path d="M173.1,100.9l-.4.2a.9.9,0,0,1-1-.3L168.7,98l-8.1-7.4L160,90c-.3-.4-.7-.8-.3-1.3s.9,0,1.2.3l7.1,6.4,4.4,4.1A1.6,1.6,0,0,1,173.1,100.9Z" style="fill: #b97e3d"/>
        <path d="M152.8,78a2.5,2.5,0,0,1,1.3.7L165,88.6l.5.5c.3.4.7.8.3,1.3s-.9,0-1.2-.3l-6.1-5.4-5.6-5.2c-.3-.3-.7-.6-.5-1.1Z" style="fill: #b97e3d"/>
        <path d="M132.2,133.8v4.3a1.8,1.8,0,0,1-1.6.5h-16c-1.8,0-3.6.4-5.4.3a7,7,0,0,1-3.2-.7l-1.8-.9a5.6,5.6,0,0,0,3.4-3.4,2.5,2.5,0,0,1,2-.7h20.7A2.3,2.3,0,0,1,132.2,133.8Z" style="fill: #4c2e0b"/>
        <path d="M132.3,147.1H105.6l-1.5-.6a5.4,5.4,0,0,0,3.5-3.7,2.3,2.3,0,0,1,2-.7h20.6a2.3,2.3,0,0,1,1.9.6Z" style="fill: #4c2e0b"/>
        <path d="M132.2,133.8H107.6a5.3,5.3,0,0,0-1.6-5c.3-.8,1.1-.8,1.8-.8,7.7,0,15.3-.1,23,.1a1.6,1.6,0,0,1,1.5.7Z" style="fill: #985e1a"/>
        <path d="M132.2,142.8H107.7a5.4,5.4,0,0,0-1.7-4.8h26.3Z" style="fill: #985e1a"/>
        <path d="M132.2,128.9H106l-1.8-.9a5.6,5.6,0,0,0,3.4-3.3h2.2a4.9,4.9,0,0,1,2.6-.7h13.3a2.8,2.8,0,0,1,1.8.4,2.1,2.1,0,0,1,.6.9,2.1,2.1,0,0,0,2.2,1.5c.7,0,1.5-.1,2,.7Z" style="fill: #4c2e0b"/>
        <path d="M106.4,123.4a3.4,3.4,0,1,1-3.3-3.5A3.5,3.5,0,0,1,106.4,123.4Z" style="fill: #995f1a"/>
        <path d="M103,138.3a3.4,3.4,0,1,1,.1,6.8,3.4,3.4,0,0,1-3.4-3.3A3.3,3.3,0,0,1,103,138.3Z" style="fill: #995f1a"/>
        <path d="M103,135.9a3.3,3.3,0,0,1-3.4-3.5,3.4,3.4,0,0,1,3.4-3.3,3.3,3.3,0,0,1,3.4,3.5A3.3,3.3,0,0,1,103,135.9Z" style="fill: #995f1a"/>
        <path d="M132.3,127.5h-2.2c-1.9,0-2.4-.6-2.5-2.5s.6-1.7,1.7-1.8c9.1-.5,18.2-.2,27.3-.2a2.6,2.6,0,0,1,2.8,2.1c.4,1.3-.4,2.1-1.4,2.7a1.9,1.9,0,0,1-2.6-.3Z" style="fill: #e1b178"/>
        <path d="M181.5,133.9a5.5,5.5,0,0,0,3.3,3.3l-1.8.9a5,5,0,0,1-2.8.5c-5.6-.1-11.3-.1-16.9,0-2,.1-3.9.2-5.9.2a2.3,2.3,0,0,1-2-.7v-4.2a2.6,2.6,0,0,1,2.4-.6q9.6.5,19.1,0C178.5,133.2,180.1,132.7,181.5,133.9Z" style="fill: #4c2e0b"/>
        <path d="M181.3,142.8a5.4,5.4,0,0,0,3.6,3.7l-1.4.5c-2.3,1.1-4.7.8-7.1.7-6.4-.4-12.9-.1-19.3-.2-.6,0-1.3.1-1.8-.5v-4.2a2.1,2.1,0,0,1,1.7-.6h22.5A2.4,2.4,0,0,1,181.3,142.8Z" style="fill: #4c2e0b"/>
        <path d="M181.3,151.8a5.5,5.5,0,0,0,2.9,3.7c1,.5-.1.4-.3.6a11.5,11.5,0,0,1-3.9.5c-6.2,0-12.4-.3-18.7.1a38.3,38.3,0,0,1-4.5,0,1.9,1.9,0,0,1-1.5-.7v-4.2a2.3,2.3,0,0,1,2-.7h21.9A2.3,2.3,0,0,1,181.3,151.8Z" style="fill: #4c2e0b"/>
        <path d="M181.5,133.9H155.4a29.3,29.3,0,0,1,0-5,1.8,1.8,0,0,1,1.7-.7c8.1-.2,16.2-.1,24.3-.1.7,0,1.4,0,1.8.7A4.8,4.8,0,0,0,181.5,133.9Z" style="fill: #975e1a"/>
        <path d="M183.2,128.8H155.4v-1.3c2.9-.2,3.1-.3,3.5-2.3s.5-1.2,1.2-1.3h15.5a5.6,5.6,0,0,1,3.2.8h2.7a5.7,5.7,0,0,0,3.4,3.4Z" style="fill: #4c2e0b"/>
        <path d="M155.4,156h28.6a5.3,5.3,0,0,0-2.7,4.7H155.4Z" style="fill: #985f1a"/>
        <path d="M181.3,151.8H155.4V147h28.2A5.3,5.3,0,0,0,181.3,151.8Z" style="fill: #985f1a"/>
        <path d="M181.3,142.8H155.4V138H183A5.6,5.6,0,0,0,181.3,142.8Z" style="fill: #985e1a"/>
        <path d="M186.1,145.4a3.5,3.5,0,0,1-3.5-3.5,3.5,3.5,0,0,1,3.4-3.5,3.4,3.4,0,0,1,3.5,3.4A3.5,3.5,0,0,1,186.1,145.4Z" style="fill: #995f1a"/>
        <path d="M189.5,132.6a3.5,3.5,0,1,1-3.5-3.4A3.4,3.4,0,0,1,189.5,132.6Z" style="fill: #995f1a"/>
        <path d="M186,119.9a3.5,3.5,0,0,1,.2,6.9,3.5,3.5,0,0,1-.2-6.9Z" style="fill: #995f1a"/>
        <path d="M186,147.6a3.4,3.4,0,1,1-3.4,3.5A3.4,3.4,0,0,1,186,147.6Z" style="fill: #995f1a"/>
        <path d="M186,163.7a3.4,3.4,0,1,1,.2-6.8,3.4,3.4,0,1,1-.2,6.8Z" style="fill: #995f1a"/>
        <path d="M108.6,148a3.6,3.6,0,0,1,1.7-.3h15.3c.4.1.9.2.9.7s-.5.7-.9.7H110.3a3.7,3.7,0,0,1-1.7-.3A.7.7,0,0,1,108.6,148Z" style="fill: #b67b3a"/>
        <path d="M108.6,148v1C107.8,148.6,107.8,148.3,108.6,148Z" style="fill: #a46a27"/>
        <path d="M120.8,114.4h14.7c.5.1,1.2.1,1.2.8s-.7.7-1.2.7h-15l-.9-.3C119.2,114.5,120.3,114.7,120.8,114.4Z" style="fill: #b67b3a"/>
        <path d="M149.8,111.8h7.8c.4,0,1.1-.1,1.1.6s-.6.7-1,.7H141.5c-.4,0-1,0-1-.6s.6-.7,1.1-.7Z" style="fill: #b87d3c"/>
        <path d="M168.4,114.7l1,1.2h-6.7c-.5,0-1.1,0-1.1-.6s.6-.6,1.1-.6h5.7Z" style="fill: #b87d3c"/>
        <path d="M120.8,114.4l-1.3,1.3-.6.3C118.2,113.8,119.9,114.6,120.8,114.4Z" style="fill: #805321"/>
        <path d="M132.7,103.2h8.7c.5,0,1.2-.1,1.2.6s-.7.6-1.2.6h-9.7C131.4,103.5,132.2,103.5,132.7,103.2Z" style="fill: #b97e3e"/>
        <path d="M132.7,103.2l-1,1.2h-5.6c-.5,0-1.3.2-1.3-.6s.8-.7,1.3-.7Z" style="fill: #825624"/>
        <path d="M147,95.5l-.6-.6c-.6-.1-1.2-.1-1-1,1.9,0,3.7-.1,5.6,0s2.7-.7,2.7.6-1.8.4-2.7.6S148.3,94.8,147,95.5Z" style="fill: #825523"/>
        <path d="M141.9,94.8l-.6.6c-1.4-.6-2.8-.2-4.2-.3s-1.4.1-1.3-.7.8-.5,1.3-.5h5.9C143,94.7,142.6,94.9,141.9,94.8Z" style="fill: #825523"/>
        <path d="M141.9,94.8l1-1a2.9,2.9,0,0,1,2.6,0l1,1A6.9,6.9,0,0,1,141.9,94.8Z" style="fill: #b27837"/>
        <path d="M178.7,124.6H160.7c-.7,0-1.4-.3-1.8.6a2.3,2.3,0,0,0-2.6-1.7H130a2.4,2.4,0,0,0-2.5,1.4,3.2,3.2,0,0,0-2-.3H109.9a8.4,8.4,0,0,1,7.3-3.6c19.2.2,38.5.1,57.7.1A17,17,0,0,1,178.7,124.6Z" style="fill: #985e1a"/>
        <path d="M118.4,131h-7.5c-.5,0-1.2.1-1.3-.6s.7-.6,1.2-.6h15.5c.5,0,1.2-.1,1.2.6s-.8.6-1.3.6Z" style="fill: #b87d3c"/>
        <path d="M121.8,140h-7.7c-.5,0-1.1.1-1.2-.5s.6-.8,1.1-.8h15.6c.5,0,1.1,0,1.1.6s-.7.6-1.2.6Z" style="fill: #b87d3d"/>
        <path d="M167.2,132.9h-7.3c-.6,0-1.5.1-1.5-.8s.9-.8,1.5-.8h14.8l1.1.2a.6.6,0,0,1,.5.5.6.6,0,0,1-.5.7l-1.9.2Z" style="fill: #b67b3a"/>
        <path d="M171.5,156.9h7.5c.5,0,1.2-.2,1.3.6s-.7.7-1.2.7H163.6c-.5,0-1.2,0-1.2-.7s.8-.6,1.3-.6Z" style="fill: #b87d3c"/>
        <path d="M165.5,149h-7.7c-.5,0-1.2.1-1.3-.6s.7-.7,1.2-.7h15.4c.5,0,1.3-.1,1.3.6s-.8.6-1.4.6Z" style="fill: #b97e3e"/>
        <path d="M172,138.4h7.3c.6,0,1.5-.1,1.5.8s-.9.8-1.5.8H164.5c-.6,0-1.5.1-1.5-.7s.9-.8,1.5-.8Z" style="fill: #b67b3a"/>
        <path d="M122.2,123h-7.3c-.6,0-1.5.1-1.5-.7s.9-.8,1.5-.8h15c.6,0,1.3,0,1.3.8s-.8.8-1.3.8Z" style="fill: #b67b3a"/>
      </g>
    </g>
  </g>
</svg>
