<svg xmlns="http://www.w3.org/2000/svg" viewBox="0 0 290.4 212.7">
  <title>proyecto6</title>
  <g id="3ca2995a-d6b9-4f40-9524-04275f50edf5" data-name="Capa 2">
    <g id="fe19362c-e5b7-486f-9e3f-2ad9eaded906" data-name="Pagina Movil">
      <g id="07e4b7f1-fb67-4133-b3ca-7117e3efa8a3" data-name="proyecto 6">
        <path d="M145.1,212.7H0Q.1,106.3,0,0H290.4q-.1,106.3,0,212.7Z" style="fill: #1d82c0"/>
        <path d="M192,37.5a74.4,74.4,0,0,1,15.9,14.2,81.4,81.4,0,0,1,17.4,34.1,84.4,84.4,0,0,1-2.6,49.5,85.6,85.6,0,0,1-14.3,24.8c-9.9,12.3-22.6,20.3-37.3,25.6a76.6,76.6,0,0,1-48.8,1.1c-15-4.5-28.2-12.4-38.5-24.4a83.7,83.7,0,0,1-15.1-24.2,84.7,84.7,0,0,1,5.4-74.5C80,53.2,88.2,45,97.7,37.8c22.6-17,55.8-20.1,82.2-7.6l.8.5c.2.7-.3,1.1-.8,1.4-3.6,2.8-4.9,6.6-5,11s1.1,9.8,1.8,14.7a32.6,32.6,0,0,1,.1,5.9,2.9,2.9,0,0,1-.3,1.1c-.4.9-.8,2-1.9,2.2s-1.7-.9-2.3-1.7-2.3-4.4-3.9-6.3a14.1,14.1,0,0,0-7.2-4.5,17,17,0,0,0-6.7-.3,11.5,11.5,0,0,0-9.9,8.1c-2.1,5.8-1.9,11.8-.8,17.8l.7,3.5c.1.5.3,1.1-.1,1.5a19.7,19.7,0,0,1-2.8,1.4c-1.7.3-3.4-.5-5.1-.4-8.1.2-16.2-.4-24.3-.4a21.4,21.4,0,0,0-11.8,3.6A4.8,4.8,0,0,0,98.7,91a9.6,9.6,0,0,1-2.2,2.5c-3.4,3.2-5.4,7.3-6.8,11.7a11.6,11.6,0,0,0-.3,2.2c.1,4.7-.3,9.3,1.3,13.9a23.8,23.8,0,0,0,11,13.2,21.2,21.2,0,0,0,15.8,2.5,26.1,26.1,0,0,0,9.6-4.8,4.5,4.5,0,0,1,2.8-1H162a5.4,5.4,0,0,1,3.4,1.3,24.6,24.6,0,0,0,8.1,4.2c7.5,2.1,14.3.2,20.2-4.5a22,22,0,0,0,8.7-18.1,24.1,24.1,0,0,0-.1-4.2c.9-7.5-3.1-12.7-8-17.6a3.8,3.8,0,0,1-1-1.3,3.6,3.6,0,0,0-1.3-1.4c-3.5-2.2-7.1-3.9-11.4-3.9-8.5-.1-16.9.6-25.4.4-1.7,0-3.3.7-4.9.4a24.6,24.6,0,0,0-2.8-1.2c-.9-.9-1-2.1-1.2-3.2-1.1-5-1.7-9.9-1-15a19.3,19.3,0,0,1,1.8-5.5c2.2-4.4,6.5-5.7,10.6-5.6a11.6,11.6,0,0,1,10.6,6.5,49.4,49.4,0,0,0,3,4.8c2,2.8,4.4,2.8,6.3,0a10.2,10.2,0,0,0,1.5-6.8c-.3-4.1-1.5-8-1.9-12.1s-.7-7.6,1.1-11.2a7.4,7.4,0,0,1,3.1-3.4,3.8,3.8,0,0,1,3.8-.1C187.4,34.9,189.8,36,192,37.5Z" style="fill: #e17b3e"/>
        <path d="M192,37.5c-1.4-.1-2.4-1-3.6-1.5s-1.7-.9-2.6-1.3c-2.8-1.4-5.3-.4-6.6,2.5s-1.6,7.1-1.2,10.7,1.6,8,2,12.1a15.4,15.4,0,0,1-.5,5.6,7.7,7.7,0,0,1-1.6,2.9c-2.3,2.6-4.8,2.6-6.8-.2a62.2,62.2,0,0,1-3.7-6c-3.4-6-13.1-7.5-17.8-2.5-2.6,2.7-3.3,6.4-3.5,10a46.4,46.4,0,0,0,2,15.3c.7.9.4,1.7-.4,2.4a2,2,0,0,1-2.6.2c-.9-.6-1.5-1.5-.8-2.6A50.7,50.7,0,0,1,142.3,70a24.6,24.6,0,0,1,2.1-9.4c3.3-6.8,11.7-9.5,19.3-6.3a15.9,15.9,0,0,1,7.8,7.6c.7,1.3,1.5,2.6,2.2,3.9s.9.7,1.4,0a5.9,5.9,0,0,0,1.1-3.6c.1-3.9-.9-7.7-1.5-11.5a37.4,37.4,0,0,1-.5-8.8c.4-4.8,2.2-8.8,6.6-11.3a65.8,65.8,0,0,1,10.5,5.9A1.5,1.5,0,0,1,192,37.5Z" style="fill: #575655"/>
        <path d="M203.3,109.7c.7,8.2-1.1,15.5-7.1,21.4A30.4,30.4,0,0,1,189,136c-5.1,2.8-10.5,2.8-15.9,1.4a23.4,23.4,0,0,1-8.4-4.5,4.1,4.1,0,0,0-2.8-.9H130.4a4.4,4.4,0,0,0-2.9,1c-6.6,5.1-13.9,6.7-21.9,4.2a24.8,24.8,0,0,1-16.8-23.8c.1-2.1-.4-4.2.3-6.2s1.1-4,2.2-5.8c4.3-7.1,10.5-11.6,18.9-12.4s19-.5,28.5-.3c12.3.3,24.6-.4,36.9-.1,4.6.1,9.3.2,13.6,2.2,7.9,3.7,13.1,9.5,13.9,18.5A1.1,1.1,0,0,0,203.3,109.7Z" style="fill: #e7e5e3"/>
        <path d="M203.3,109.7c-.9-2.3-1.3-4.7-2.5-7-4.1-7.8-10.5-12.3-19.2-13s-19-.4-28.5-.2c-4.9.1-9.7.1-14.6,0-8.2-.2-16.3-.1-24.5,0-9.8.1-17.4,4.2-22.3,12.8a23.1,23.1,0,0,0-2.4,6.6l-.2-1.7c.7-6.7,3.9-12,9.1-16.1,3.9-2.3,7.7-4.7,12.5-4.6,8.9.2,17.7-1.2,26.6-.7h4a9.4,9.4,0,0,1,2.8-.8l.2.4c.4.9.7,2,1.9,1.9s1.6-1.1,1.7-2.2a6.3,6.3,0,0,1,2.9.8c5.2.1,10.5-.4,15.6.1s11,.4,16.5.6a14.8,14.8,0,0,1,5.3,1.4A36.2,36.2,0,0,1,194,91C200,95.8,203.3,101.9,203.3,109.7Z" style="fill: #efedeb"/>
        <path d="M141.3,85.7H125.7a2.4,2.4,0,0,0-2.3.8c-.4.6-1.1.5-1.8.5-2.9,0-5.8.1-8.7,0a20.5,20.5,0,0,0-12.2,3.4,2.5,2.5,0,0,1-2.6.5c-.5-.7-.1-1.1.5-1.4,3.9-2.8,8.1-4.8,13.1-4.7a42.5,42.5,0,0,0,5.6,0c4-.4,7.9,1,11.9.8S137.3,85.7,141.3,85.7Z" style="fill: #9a9897"/>
        <path d="M194,91a2.2,2.2,0,0,1-2.3-.3,20.7,20.7,0,0,0-12.8-3.6c-2.3.1-4.6,0-6.9,0s-2.8.2-3.9-1.1-1.1-.3-1.7-.3H150.8c5.1,0,10.2.4,15.1-.2s10-.6,15-.6,8.8,2,12.6,4.7C194.1,89.9,194.5,90.3,194,91Z" style="fill: #9a9897"/>
        <path d="M200.8,114a21,21,0,1,1-42,.3c0-12.1,9.1-21.5,20.8-21.5A20.8,20.8,0,0,1,200.8,114Z" style="fill: #989695"/>
        <path d="M100.4,113.6A12.4,12.4,0,0,1,113,101a12.6,12.6,0,0,1,12.6,12.8A12.7,12.7,0,0,1,113,126.5,12.5,12.5,0,0,1,100.4,113.6Z" style="fill: #d0cecc"/>
        <path d="M147.5,99.3H137.2c-.6,0-1.4.3-1.4-.8s.9-.6,1.3-.6h20.6c.5,0,1.3-.4,1.4.6s-.7.8-1.3.8Z" style="fill: #615f5f"/>
        <path d="M135.9,118.4a17.3,17.3,0,0,1,3.2-3.2,1.8,1.8,0,0,1,1.3-.8c.7-.1,1.1.4,1.4.8a1.1,1.1,0,0,1-.3,1.6c-1.5,1.4-2.9,3-4.4,4.3a1.8,1.8,0,0,1-1.7-.5A1.9,1.9,0,0,1,135.9,118.4Z" style="fill: #989695"/>
        <path d="M148.8,121.3h-1.3c-.4-.6-.9-1.1-.7-1.9a23.1,23.1,0,0,1,4.4-4.6,1.3,1.3,0,0,1,2,.1,1.4,1.4,0,0,1-.2,2.1C151.6,118.4,150.1,119.7,148.8,121.3Z" style="fill: #979595"/>
        <path d="M148.8,121.3c.5-1.5,2-2.2,2.9-3.4l1.1-1.2a1.1,1.1,0,0,0,0-1.7,1.1,1.1,0,0,0-1.7,0l-4.3,4.4c-.2,0-.2-.2-.3-.4a30,30,0,0,1,4.4-4.6,1.5,1.5,0,0,1,2.3.2,1.5,1.5,0,0,1,0,2.3A37.8,37.8,0,0,1,148.8,121.3Z" style="fill: #676565"/>
        <path d="M151.3,96.2c-.8.2-1.6.5-2.1-.5a2.4,2.4,0,0,1,.6-2.6c.5-.5,1.2-.7,1.9.2-1.3,0-1.9.6-1.9,1.7s.1.7.5.7.4-.4.3-.7-.1-.6.3-.7.7.1.6.6S151.9,95.8,151.3,96.2Z" style="fill: #706e6e"/>
        <path d="M147.9,96.3c-1-.3-.8-1-1.2-1.3s-.1,1-.9,1.1a8.5,8.5,0,0,1,.3-2.9c.1-.9.8-.7,1.3-.6A.8.8,0,0,1,148,94,2.2,2.2,0,0,0,147.9,96.3Z" style="fill: #686666"/>
        <path d="M151.9,95.1c.6-.8.5-2.7,1.6-2.3s.3,2.1.5,3.8c-.9-1.5-1.6-.7-2.3-.4S151.7,95.5,151.9,95.1Z" style="fill: #636161"/>
        <path d="M137.1,121l3.5-3.5c.6-.6,1.5-1.3.8-2.3s-1.5-.3-2.3.1a1.4,1.4,0,0,1,2.4-.7,1.5,1.5,0,0,1,.2,2.6,38,38,0,0,1-4.2,4A.3.3,0,0,1,137.1,121Z" style="fill: #696767"/>
        <path d="M138.8,92.6c.7-.1.6.4.5.8a4.6,4.6,0,0,0-.1,2.3c1.3-.9.6-2.3,1.3-3.1.4,1.4.2,3-.5,3.4a1.2,1.2,0,0,1-1.7-.2A2.3,2.3,0,0,1,138.8,92.6Z" style="fill: #656363"/>
        <path d="M145.6,96.1c-1.1.2-1.9.4-2-.1a7.1,7.1,0,0,1,.4-3c.2-.6.9-.3,2-.1-1.4.4-1.7.9-.9,1.7C144,95,143.9,95.5,145.6,96.1Z" style="fill: #676565"/>
        <path d="M137.8,95.9a1.5,1.5,0,0,1-2.2,0c1.8-.1,1.6-.6.8-1.7s.2-1.5,1.7-1.5A9.1,9.1,0,0,1,137.8,95.9Z" style="fill: #727070"/>
        <path d="M159.8,96.1c-.7.1-1.5.4-1.6-.1a5.2,5.2,0,0,1,.4-2.9c.2-.7.9-.3,1.6-.3C159.1,93.6,158.9,95.4,159.8,96.1Z" style="fill: #676565"/>
        <path d="M133.6,96.6a2.2,2.2,0,0,1-1.4.3,1.6,1.6,0,0,1-2.2-2.2,2.1,2.1,0,0,1,.3-1.4,10.9,10.9,0,0,1,2,1.6h0C132.8,95.4,133.4,95.8,133.6,96.6Z" style="fill: #dad8d6"/>
        <path d="M141.4,96.3c-.6-1.2-.1-2.2.1-3.3a.5.5,0,0,1,.8-.3c.4.2,1,.1,1,.8s.1.9-.4,1.1A2,2,0,0,0,141.4,96.3Z" style="fill: #6b6969"/>
        <path d="M154.6,94.6a.5.5,0,0,1,0-.2c.2-.6-.1-1.7.7-1.7s.4,1.1.6,1.6l.3.2c.3,0,.4.1.3.4s-.1,1.3-1,1.2a2,2,0,0,1-.6-.8Z" style="fill: #615f5f"/>
        <path d="M130.4,96.8a1.3,1.3,0,0,1,1.9,0c.2.9,0,1.6-1,1.6s-1.1-.8-.8-1.6Z" style="fill: #626060"/>
        <path d="M130.4,96.8h-.4c-.8,0-1.5-.1-1.4-1.1s.8-1.1,1.5-.9S130.3,96.1,130.4,96.8Z" style="fill: #615f5f"/>
        <path d="M156.6,95l-.3-.4c.5-.6.3-2.1,1.3-1.8s.1,1.5,0,2.3.1.9-.4,1.1S157.1,95.2,156.6,95Z" style="fill: #686666"/>
        <path d="M132.3,94.9c-1-.1-2.4.2-2-1.6S132.2,92.8,132.3,94.9Z" style="fill: #636161"/>
        <path d="M133.6,96.6c-1.3.1-2.1-.2-1.3-1.7a1,1,0,0,1,1.5.2A1.2,1.2,0,0,1,133.6,96.6Z" style="fill: #626060"/>
        <path d="M137.8,95.9a3.5,3.5,0,0,0,0-.6,8.9,8.9,0,0,1,.2-2.6h.7a13.4,13.4,0,0,0-.4,3.2Z" style="fill: #dcdad9"/>
        <path d="M135.9,118.4a4.5,4.5,0,0,0-.2,2.3.2.2,0,0,1-.3,0C134.6,119.7,134.6,118.9,135.9,118.4Z" style="fill: #716f6e"/>
        <path d="M146.6,119.1l.3.4.6,1.9A1.6,1.6,0,0,1,146.6,119.1Z" style="fill: #5e5c5c"/>
        <path d="M135.3,120.7h.3l1.5.3h.5A1.5,1.5,0,0,1,135.3,120.7Z" style="fill: #716f6f"/>
        <path d="M154.6,94.6l.6.6a1.1,1.1,0,0,1-.3,1C153.8,95.8,154.8,95.1,154.6,94.6Z" style="fill: #5c5a5a"/>
        <path d="M154.9,96.2c.1-.4-.1-.8.3-1s.3.7.3,1Z" style="fill: #c9c7c6"/>
        <path d="M151.9,95.1l-.3,1h-.3a2,2,0,0,1,.3-1.3Z" style="fill: #afadac"/>
        <path d="M169,119.7a5.5,5.5,0,0,1-5.5-3.9,5.6,5.6,0,0,1,2-6.3l11.6-8.4a5.2,5.2,0,0,1,7.5,1.2,5.4,5.4,0,0,1-1.2,7.5c-3.8,3.1-7.8,5.9-11.7,8.8A4.2,4.2,0,0,1,169,119.7Z" style="fill: #e7e5e3"/>
        <path d="M196.2,113.6c0,2.4-.5,3.7-2,4.8l-12,8.7a5.4,5.4,0,0,1-6.3-8.7l5.5-4c2-1.5,4-3,5.9-4.6a5.1,5.1,0,0,1,6-.7A5.2,5.2,0,0,1,196.2,113.6Z" style="fill: #e7e5e3"/>
        <path d="M108.1,110.4a1.5,1.5,0,0,0,.9-1.6c0-.7,0-1.5,0-2.2s.5-2.1,1.9-2h4.2c1.2,0,1.8.5,1.7,1.7s0,1.7,0,2.6a1.4,1.4,0,0,0,1,1.5.4.4,0,0,1-.1.5c-1.2.6-1.7,0-1.9-1.1a2.4,2.4,0,0,1-.1-.6c.2-3-1.9-3.1-4.3-2.7-.8.1-1.1.8-1.2,1.6s0,1.2-.1,1.8-.8,1.7-1.9,1.1A.4.4,0,0,1,108.1,110.4Z" style="fill: #5f5d5d"/>
        <path d="M117.5,118.7c-1.1,1-.5,2.3-.6,3.5s-.2,2.2-2.2,2.2h-4c-1.1,0-1.6-.5-1.6-1.7s.5-2.8-.5-4,.5-.6,1-.5.7,1.5.7,2.3.7,2.3,2.7,2.3,2.6-.4,2.8-2.2-.2-1.8.7-2.4S117.3,118.1,117.5,118.7Z" style="fill: #626060"/>
        <path d="M122,110.7a1.4,1.4,0,0,1,.6,1.4c0,1.7,0,3.3,0,5s-.1,1.3-.9,1.5a.6.6,0,0,1-.9-.3c.2-2.4-.1-4.8.3-7.2A.6.6,0,0,1,122,110.7Z" style="fill: #5f5d5d"/>
        <path d="M104.1,118.5a1,1,0,0,1-.9-1c0-2,0-4.1,0-6.1a.9.9,0,0,1,.6-.7.8.8,0,0,1,1,.2c.4,2.4.1,4.9.2,7.3A.7.7,0,0,1,104.1,118.5Z" style="fill: #626060"/>
        <path d="M104.1,118.5l.7-.3c1.4-1.3,3.8-1.1,4.5.3l-.9.3C107,118.5,105.6,118.9,104.1,118.5Z" style="fill: #6b6969"/>
        <path d="M121,118.2l.7.3c-1.4.4-2.9,0-4.3.2l-.9-.3C117.3,117.1,119.7,116.9,121,118.2Z" style="fill: #6b6969"/>
        <path d="M122,110.7l-.7.4a2.8,2.8,0,0,1-3.5-.3v-.3C119.2,110.5,120.7,110.1,122,110.7Z" style="fill: #797777"/>
        <path d="M104.6,111l-.7-.4c1.4-.5,2.9-.2,4.3-.2v.3C107,111.8,105.8,111.6,104.6,111Z" style="fill: #797777"/>
        <path d="M146.9,94.2a.3.3,0,0,1-.2-.5c.1-.2.2-.4.4-.4a.3.3,0,0,1,.4.4A.5.5,0,0,1,146.9,94.2Z" style="fill: #c8c6c5"/>
        <path d="M142.4,94.2c-.3,0-.4-.1-.4-.3s.2-.4.3-.5.4.1.4.4A.4.4,0,0,1,142.4,94.2Z" style="fill: #c6c4c3"/>
        <path d="M168.7,110a4.2,4.2,0,0,1-.1,8.3,4.2,4.2,0,0,1,.1-8.3Z" style="fill: #45b29c"/>
        <path d="M180.2,101.5a4,4,0,0,1,.1,8,4,4,0,1,1-.1-8Z" style="fill: #238ab3"/>
        <path d="M190.9,118.2a4,4,0,0,1-4-4,4.1,4.1,0,0,1,4.1-4.4,4.1,4.1,0,0,1,3.9,4.4A3.9,3.9,0,0,1,190.9,118.2Z" style="fill: #bc3e25"/>
        <path d="M179.2,126.6a4,4,0,0,1-3.9-4,4.1,4.1,0,0,1,4.1-4,4,4,0,0,1,4,4.2A3.9,3.9,0,0,1,179.2,126.6Z" style="fill: #eec74a"/>
        <path d="M104.6,111c1.1-.5,2.4-.2,3.5-.3s1.3-.4,1.3-1.3c.2-3.9.2-3.9,4.1-3.9h1.4c1.1,0,1.6.6,1.6,1.6s0,1.5,0,2.3.3,1.4,1.3,1.3a12.8,12.8,0,0,1,3.5.3c.4,2.4.9,4.8-.3,7.1-1.5.1-3-.4-4.5.3s-.1,2.2,0,3.4-.5,1.7-1.6,1.7H111c-1.1,0-1.6-.6-1.6-1.7s0-2.2,0-3.4-3-.2-4.5-.3-.6-.5-.6-.7C104.2,115.3,103.8,113.1,104.6,111Z" style="fill: #989695"/>
        <path d="M112.8,117.4a2.9,2.9,0,0,1-2.7-2.8,2.9,2.9,0,0,1,2.6-2.6,2.6,2.6,0,0,1,2.8,2.6A2.6,2.6,0,0,1,112.8,117.4Z" style="fill: #a09d9c"/>
      </g>
    </g>
  </g>
</svg>
