<svg xmlns="http://www.w3.org/2000/svg" viewBox="0 0 290.4 212.7">
  <title>proyecto5</title>
  <g id="51593dae-b5e7-4e18-a42a-33efc876d89b" data-name="Capa 2">
    <g id="1f0edb7f-f3f0-456c-a974-54377fe55f3c" data-name="Pagina Movil">
      <g id="bbf2767e-19a1-46b5-aa7c-8066d67b33e0" data-name="proyecto 5">
        <path d="M145.2,212.7H0Q.1,106.3,0,0H290.4q-.1,106.3,0,212.7Z" style="fill: #130f0f"/>
        <path d="M64.6,124.6a69.7,69.7,0,0,1-2-15.3A83.6,83.6,0,0,1,97.3,38.1c16.8-12.5,35.8-17,56.4-15.1a76.3,76.3,0,0,1,37.1,13.4c9.4,6.5,17.6,14.4,23.7,24.2a84.6,84.6,0,0,1,13,52.3,65.8,65.8,0,0,1-1.8,11.6,2.2,2.2,0,0,1-1.8.6h-5.1c-1.4,0-2.3-.6-2.4-2s-.3-1.4-1.3-1.5-1.3.6-1.4,1.5-.9,2-2.2,2h-2.7c-1.9-.1-2.2-.4-2.7-2.5s-.5-1-1.2-1a1,1,0,0,0-1.1,1c-.1,1-.1,2.1-1.3,2.3s-3.1.6-4.4-.6a13,13,0,0,1-.7-4.5c-.1-1.4-.2-2.9-.3-4.3a16.2,16.2,0,0,1,.3-4.5c1.6-1.9,1.7-4,1.7-6.4-.1-4.9,0-9.9,0-14.8-.7-1.8-2.3-2.8-3.7-3.9-8.5-7-17.3-13.8-25.8-20.9-6.5-5.5-13.2-10.7-19.6-16.1a15.1,15.1,0,0,0-2.2-1.6,6.6,6.6,0,0,1-1.4-1,3.2,3.2,0,0,1-1.1-2.2c0-2.8,0-5.7,0-8.5s.7-3,3.2-2.4c.7.4.7,1,.7,1.7a3.3,3.3,0,0,0,.3,1.7l.4.2h12.5a5.1,5.1,0,0,0-1.4-1.6c-1.2-1.2-1.2-1.7,0-2.8s.9-.6,1.1-1.2c-2.5-.4-5.1.3-7.5-.5A2.1,2.1,0,0,1,154,29c.1-1.3-.6-1.6-1.8-1.6h-4.5a2.4,2.4,0,0,1-2.3-.9c-.2-.2-.3-.3-.4,0-.1,5.5,0,10.9,0,16.4a3.8,3.8,0,0,1-1.2,3.2l-.5.6a3.8,3.8,0,0,0-1.5,1.1c-5.4,4.4-11,8.6-16.3,13.2-10,8.6-20.4,16.6-30.6,24.9-1.1.9-1.9,2-3.1,2.8a1.3,1.3,0,0,0-.6,1.1c0,5.7,0,11.4,0,17.1a4.8,4.8,0,0,0,1.1,3.1,3.5,3.5,0,0,1,.9,1.8c-.1,1.3,0,2.5-.1,3.8s-.1,5-.5,7.5a3.2,3.2,0,0,1-.5,1.5c-1.6.9-3.2.6-4.8.3s-1.3-1.1-1.4-2-.3-1.3-1.3-1.3-.9.7-1.1,1.3-.7,2.1-2.4,2.1H78.7c-2-.1-2.4-.4-2.8-2.3s-.3-1.1-1.1-1.2-1.1.4-1.3,1.1-.9,2.3-2.8,2.3H66.6A2.4,2.4,0,0,1,64.6,124.6Z" style="fill: #ebefef"/>
        <path d="M208.1,160.4c-4.5,6.2-10.4,10.9-16.6,15.2a86.1,86.1,0,0,1-20.4,10.1c-16.2,5.8-32.6,5.6-49,1.1-1.1-.3-2-1-3-1.3a16.5,16.5,0,0,1-3.2-2.6c-5.8-5.7-11.7-11.3-17.4-17.1-1-1-2.3-1.8-3.2-2.9s-1.1-1.1-.9-2a.9.9,0,0,1,.5-.5c1.5,0,2.6,1.3,4,1.5,4,1.3,8,2.6,12.2,2.8,2.4,1,4.9,1,7.4,1.4l4,.5c1.5-.1,3,.3,4.5.3,8.9.7,17.8.5,26.6.5,3.3,0,6.5-.5,9.8-.5,1.5,0,3.1-.5,4.6-.3l11.5-1.6a101.6,101.6,0,0,0,11.9-3.1,28.1,28.1,0,0,0,6.7-3.6c1.4-.7,1.5-2.4,2.6-3.3a.8.8,0,0,1,.6.1A48.4,48.4,0,0,1,208.1,160.4Z" style="fill: #838383"/>
        <path d="M94.6,161c.3,1.2,1.3,1.8,2.1,2.5,4,3.5,7.6,7.4,11.4,11.1l9.7,9.4,1.3,1.4a78.7,78.7,0,0,1-30.3-18A84.6,84.6,0,0,1,69.1,139l-.3-.9c.6-.6,1.3-.4,2-.5,3.3-.2,6.5.1,9.8,0s5.6-.1,8.3,0a6.2,6.2,0,0,1,1.9.2c1,.7.8,1.7.7,2.6-.4,4.7-.6,9.5-1,14.2a4.6,4.6,0,0,0,1.4,3.4,7.3,7.3,0,0,1,1.9,1.5A3.9,3.9,0,0,1,94.6,161Z" style="fill: #b4b4b4"/>
        <path d="M208.1,160.4c-1.6-.4-2.6-1.7-4-2.6s-2.3-1.7-3.4-2.6a2.2,2.2,0,0,1-1-2.1c-.2-4.4-.6-8.8-.9-13.1a2.5,2.5,0,0,1,.5-2.1,25.6,25.6,0,0,1,6.7-.4,76.6,76.6,0,0,0,8,0c2.2-.2,4.4.2,6.6.2a1.3,1.3,0,0,1,1,.4A76.4,76.4,0,0,1,208.1,160.4Z" style="fill: #b4b4b4"/>
        <path d="M221.7,138.1H199.5a.3.3,0,0,1-.1-.3h.1c.7-.6,1.5-.4,2.3-.5s.9-.1.9-.7-.5-.6-.9-.7-1.8.4-2.7,0a4.4,4.4,0,0,1-.2-4.1c.7-.8,1.6-.6,2.5-.7s1.3-.3,1.3-1.2-.6-1.1-1.4-1.1-1.9.1-2.7-.6-1.2-2.6,0-3.9c1.3.6,2.6.3,4,.3s.8-.8.8-1.4,1.2-2.6,3-2,.6.9.6,1.5.6,2.2,2.1,2h2.4c1.4.1,2.1-.3,1.9-1.8s-.3-1.5.5-1.6a4.8,4.8,0,0,1,3,.1c.5.3.4,1,.3,1.5s.5,1.9,1.9,1.9h6.8a13.4,13.4,0,0,1-.9,3.6,2.7,2.7,0,0,1-2.1.6h-3.7c-.8,0-1.3.3-1.3,1.2s.5,1.1,1.3,1.1H222c.7,0,1.4,0,1.9.6a13.5,13.5,0,0,1-1.2,3.6c-1,.9-2.2.5-3.3.6s-1.4-.1-1.3.7.8.5,1.3.6,1.8-.2,2.5.6A.3.3,0,0,1,221.7,138.1Z" style="fill: #d7d7d7"/>
        <path d="M91,138.1H68.8a.3.3,0,0,1-.1-.3c.7-.8,1.7-.5,2.5-.7s.9,0,1-.6-.5-.7-1-.7-2.4.3-3.4-.6a13.5,13.5,0,0,1-1.2-3.6c1-1,2.2-.5,3.3-.6h1.6c.7-.1.8-.6.8-1.2a.9.9,0,0,0-1-1H67.8a2.9,2.9,0,0,1-2.2-.6,13.3,13.3,0,0,1-.9-3.6h6.4c1.4.1,2.1-.4,1.9-1.8s.5-1.8,1.8-1.8,1.9.4,1.7,1.7.4,2,1.8,1.9h1.4a7.3,7.3,0,0,0,2.7-.2c1-.5.4-1.6.5-2.5s1.2-.8,1.9-.9,1.6-.3,1.7.9a4.8,4.8,0,0,1,0,.8c-.2,1.4.5,1.9,1.9,1.8h3.5c1.1,1.2.6,2.4,0,3.6s-2.2.5-3.4.6-1.4.2-1.4,1.1.6,1.1,1.4,1.2,2.2-.2,3,.6a4.9,4.9,0,0,1-.1,4.4c-1.1.2-2-.6-3.1-.3s-1.2,0-1.1.8.7.5,1.1.6,1.8-.2,2.6.5A.3.3,0,0,1,91,138.1Z" style="fill: #d7d7d7"/>
        <path d="M223.9,131.7c-1.8,0-3.5-.1-5.3,0s-1.4-.8-1.4-1.8.1-1.8,1.5-1.8,4.2,0,6.3,0A13.7,13.7,0,0,1,223.9,131.7Z" style="fill: #ebefef"/>
        <path d="M65.5,128.1c2,0,4,.1,5.9,0s1.5.7,1.5,1.8.1,1.9-1.4,1.8-3.3,0-5,0A13.7,13.7,0,0,1,65.5,128.1Z" style="fill: #ebefef"/>
        <path d="M221.8,137.8h-3c-1,0-1.6-.1-1.6-1.3s.6-1.3,1.5-1.3h4A7.3,7.3,0,0,1,221.8,137.8Z" style="fill: #e9eded"/>
        <path d="M67.8,135.2h3.5c1,0,1.6.1,1.6,1.3s-.7,1.3-1.6,1.3H68.7A7.3,7.3,0,0,1,67.8,135.2Z" style="fill: #e9eded"/>
        <path d="M143.1,46.5l.2-.2a.7.7,0,0,1,.8-.3l.3.3a1.2,1.2,0,0,1-.3,1.1,38.3,38.3,0,0,0-3.9,5.5c-6.7,9.7-13.2,19.5-20,29.2a50.2,50.2,0,0,0-3.7,5.6,3.8,3.8,0,0,1-1.8,1.8h-.5c-3.2.3-6.5.1-9.7.1a2.4,2.4,0,0,1-1.2-.3c-.5-.4-.4-.8-.1-1.2a28.2,28.2,0,0,1,2.7-3.4C111.7,79,117.3,73,123,67.1c4.1-4.3,8.2-8.6,12.2-13a78.8,78.8,0,0,1,6.6-6.4A13.2,13.2,0,0,1,143.1,46.5Z" style="fill: #fefefe"/>
        <path d="M147,46.2l1,.6c4.5,4.4,9,8.8,13.2,13.4,7.3,8,14.9,15.8,22.5,23.5,1.3,1.3,2.3,2.8,3.5,4.2s.8,1.1-.2,1.5a70.8,70.8,0,0,1-10.7.1h-.5a3.8,3.8,0,0,1-1.8-1.7c-3.4-5.8-7.5-11.1-11.3-16.6-5-7.2-9.7-14.6-14.8-21.8l-1.3-1.7-.2-.5a1.3,1.3,0,0,1,.1-.7A.5.5,0,0,1,147,46.2Z" style="fill: #fefefe"/>
        <path d="M142,47.8c-4.2,4.3-8.5,8.6-12.5,13-7.8,8.6-16.1,16.7-24.1,25.1a31,31,0,0,1-2.5,2.9,1.2,1.2,0,0,1-.6.6c-3.5.5-6.9.2-10.4.2a1.4,1.4,0,0,1-1.1-.6c6.4-6,13.5-11.2,20.3-16.8,4-3.3,8.2-6.3,12-9.7,6-5.3,12.3-10.1,18.5-15.1C142,47.3,142.1,47.5,142,47.8Z" style="fill: #e35136"/>
        <path d="M187.5,89.1c-4.6-5.8-10.1-10.8-15.1-16.2-3.1-3.3-6.4-6.4-9.3-9.7-4.5-5.1-9.4-9.9-14-14.8a3.1,3.1,0,0,1-1-1.6c4.1,3.3,8.3,6.4,12.3,9.8,11.9,10,24.1,19.7,36.1,29.4,1.1.9,2.2,2,3.2,3a1.8,1.8,0,0,1-1.4.6h-9.5l-.8-.2Z" style="fill: #e35136"/>
        <path d="M90.8,89.1h11.9a2.5,2.5,0,0,1,.6,2.1c0,5.3,0,10.6,0,15.9a7,7,0,0,1-.8,2.5c-1.5,3-4,3.9-7.2,3.5a3.5,3.5,0,0,1-2.3-1.1c-.1-.2,0-.5-.2-.6-2.2-1.8-2.2-4.2-2.2-6.7.1-4.6,0-9.2,0-13.8C90.7,90.2,90.7,89.7,90.8,89.1Z" style="fill: #b13424"/>
        <path d="M187.8,89.1h11.9c.3,3.1.1,6.2.1,9.3s0,5.8,0,8.7a4.6,4.6,0,0,1-2,4c-.2,1.5-1.4,1.8-2.6,2.1-3.6.4-5.7-.6-7.2-3.5a8.4,8.4,0,0,1-.8-2.4c-.1-5.3,0-10.6,0-15.9A2.7,2.7,0,0,1,187.8,89.1Z" style="fill: #b13424"/>
        <path d="M91,138.1a.5.5,0,0,0,0-.3,1,1,0,0,1,.1-1.6,18.1,18.1,0,0,0,.3-4.6,3.6,3.6,0,0,1,.3-3.5l.3-3.6.8-9a2.4,2.4,0,0,1,2.6,1.3c.5,2.3-.1,4.6-.2,6.9-.2,3.8-.5,7.7-.8,11.5-.4,5.7-.7,11.3-1.2,17a30.8,30.8,0,0,1-.3,5c-.1.6-.2,1.2-.7,1.6a4.9,4.9,0,0,1-2-4.7C90.4,148.7,90.6,143.4,91,138.1Z" style="fill: #e35136"/>
        <path d="M199.1,131.7a16,16,0,0,0,.3,4.2,1.3,1.3,0,0,1,.1,1.9.4.4,0,0,0,0,.3c.3,5.7.7,11.4,1.2,17.1a5.2,5.2,0,0,1-2.2,3.4c-1.1-1.2-.9-2.7-1-4.1l-1.6-22.7c-.3-4.5-.6-9-1-13.4a3.4,3.4,0,0,1,.2-1.6,2.4,2.4,0,0,1,2.6-1.3l.7,8.7.3,3.9A3.5,3.5,0,0,1,199.1,131.7Z" style="fill: #e35136"/>
        <path d="M154.9,30.7H164a28.2,28.2,0,0,1-2.7,2.3c-1.2.8-.9,1.3,0,2a16.9,16.9,0,0,1,1.8,1.6c.2.2.6.3.5.7s-.5.3-.8.3H149.4c-.3-.8.2-1.2.7-1.5l2.5-1.7h-.2c-2.4,0-2.3,0-3,2.3a2.4,2.4,0,0,1-.4,1c-.6-1.2-.1-2.6-.3-3.9s.6-.7,1-.8h1.4C152.9,32.8,154.3,32.6,154.9,30.7Z" style="fill: #b13424"/>
        <path d="M154.9,30.7c-.1,2.8.4,2.5-2.7,2.6-1.1,0-2.3-.3-3.4.3-3-.1-3-.1-3,2.9s0,5.4,0,8.1a.4.4,0,0,1-.5-.2,1.9,1.9,0,0,1-.2-.9q0-8.2,0-16.4c0-.5,0-1.1.6-1.4s.3,1.3,1.3,1.2h6.3c1.2,0,1.5.4,1.4,1.5A4.9,4.9,0,0,0,154.9,30.7Z" style="fill: #e35136"/>
        <path d="M145.7,25.6c-.3,6.3,0,12.5,0,18.8a.6.6,0,0,1-.9.1c-.2-4.1-.1-8.3-.1-12.4,0-2.3-.1-4.6,0-6.9C145.3,24.9,145.5,25.2,145.7,25.6Z" style="fill: #4f2825"/>
        <path d="M197.8,115.5a5.5,5.5,0,0,1-2.3,1l-.2-.2c-.7-1.2-1-2.5-.1-3.7s2.1-.5,2.6-1.6C197.4,112.5,198,114,197.8,115.5Z" style="fill: #b33c2a"/>
        <path d="M94.9,116.5a5.5,5.5,0,0,1-2.3-1,11.9,11.9,0,0,1,.3-3.6,6.2,6.2,0,0,1,2.3.7,3.1,3.1,0,0,1-.1,3.7Z" style="fill: #b33b29"/>
        <path d="M149.1,37.4c0-3.9,0-3.9,3.9-3.8h1.4l-3.8,2.6c-.5.3-1.1.5-1.1,1.2Z" style="fill: #85241c"/>
        <path d="M144.8,25.3V44.6c.5.8.1,1.2-.6,1.4l-1,.2c1.5-1.3,1.3-3.1,1.3-4.8,0-4.8,0-9.7,0-14.5C144.6,26.4,144.4,25.8,144.8,25.3Z" style="fill: #ea9383"/>
        <path d="M144.3,46.1a3.6,3.6,0,0,0,.6-1.4l.8-.2h.1l1.2,1.6v.3c-.3.3-.6.1-.9,0h-.3a1.1,1.1,0,0,1-.7.3c-.4-.1-.4-.5-.7-.7Z" style="fill: #f6d6d0"/>
        <path d="M142,47.8l-.4-.4a1.8,1.8,0,0,1,1.4-.9A2.4,2.4,0,0,1,142,47.8Z" style="fill: #e77560"/>
        <path d="M163.6,167.5c-9.7,1-19.5.8-29.3.6a39.8,39.8,0,0,1-7.5-.6,2.6,2.6,0,0,1-.5-2.2c.3-5.2.6-10.4.9-15.7.1-2.5.4-5,.3-7.5,0-.7,0-1.4.9-1.7.8,2.3,2.5,1.8,4.4,1.8,6.5-.1,12.9-.9,19.4-.1,2.5.3,5-.1,7.5.3a1.4,1.4,0,0,0,1.8-1.2,1.3,1.3,0,0,1,.5-.8c1,.2.9,1.1.9,1.8,0,5,.5,10,.7,15.1.1,2.7.1,5.4.5,8A2.4,2.4,0,0,1,163.6,167.5Z" style="fill: #9d2d1e"/>
        <path d="M110.9,165c-.2.3-.3.5-.7.4-3.8-.8-7.7-1.5-11.4-3.1a2.2,2.2,0,0,1-.5-1.8c.3-3.3.4-6.6.7-9.9s.5-7.6.8-11.4c.4-5.7.7-11.4,1.2-17.1.2-2.3.3-4.7.6-7,.2-.8-.2-1.8.5-2.5s1.1-.6,1.6.3a6,6,0,0,0,9.4,1.8c.5-.4.9-1.3,1.7-.3a6.8,6.8,0,0,1,.2,3.2c-.6,7.7-1.1,15.4-1.6,23.1s-1.1,15.2-1.6,22.8C111.6,164,111.6,164.7,110.9,165Z" style="fill: #e35136"/>
        <path d="M191.8,162.3a56.7,56.7,0,0,1-12.1,3.2,2.6,2.6,0,0,1-.8-1.9c-.1-3.6-.5-7.2-.7-10.7-.4-5.7-.8-11.4-1.2-17.1-.2-3.7-.5-7.5-.8-11.2-.1-2.2-.2-4.4-.5-6.6a7.8,7.8,0,0,1,.1-3.7c.6-.9,1.1-.2,1.5.2s4.2,1.7,6.5,1.3a4.2,4.2,0,0,0,3-2.8c.4-1,1-1.2,1.7-.2a4.3,4.3,0,0,1,.4,2.1c.6,4.9.7,9.8,1.2,14.7s.8,11,1.2,16.5c.3,3.7.6,7.4.8,11,0,.9.1,1.7.2,2.6A3.4,3.4,0,0,1,191.8,162.3Z" style="fill: #e35136"/>
        <path d="M176.1,113.9c.4,5.9.7,11.8,1.1,17.7q1.1,15.4,2.2,30.8l.2,3.1a106.6,106.6,0,0,1-11.4,1.6c-1.1-1.3-.9-3-1-4.4-.4-7.6-1.1-15.2-1.6-22.8-.3-5.5-.8-11-1.1-16.5-.1-2-.2-4-.4-5.9a3.5,3.5,0,0,1,.1-1.9c.5-.9,1.3-.5,2-.3a10.1,10.1,0,0,0,2.8.7,5.8,5.8,0,0,0,6-3.1,1,1,0,0,1,1-.3C176.3,113,176.6,113.4,176.1,113.9Z" style="fill: #fefefe"/>
        <path d="M110.9,165c.5-6.5.9-13,1.4-19.4q1.1-15.3,2.1-30.5c0-.4,0-.7,0-1.1s-.3-1,.2-1.4a1,1,0,0,1,1,.3c1.9,3.2,4.8,4.1,9.1,2.3.6-.2,1.2-.7,1.7.1s0,4.6-.2,6.9-.5,7.5-.8,11.2c-.4,5.8-.8,11.5-1.2,17.3-.3,3.8-.6,7.6-.8,11.4-.1,1.7.2,3.6-1,5.1l-10.2-1.3C111.6,165.7,111,165.7,110.9,165Z" style="fill: #fefefe"/>
        <path d="M102,114.5l-3.2,45.6c-.1.7-.1,1.5-.1,2.3s-2.4-1.3-3.8-1.7a2.7,2.7,0,0,1-1.3-.6l-1.7-1.4,3-42.2H95a1.7,1.7,0,0,1,1.6-.6,5.7,5.7,0,0,0,4.2-1.4C101.1,114.3,101.6,113.8,102,114.5Z" style="fill: #fefefe"/>
        <path d="M191.8,162.3l-3.2-46.2c0-.6,0-1.3,0-1.9h.2a13.9,13.9,0,0,0,6.5,2c.1,0,.2.2.4.3h0l3,42.2A23.6,23.6,0,0,1,191.8,162.3Z" style="fill: #fefefe"/>
        <path d="M164.6,115.2l2,29.4,1.5,22.5a31.4,31.4,0,0,1-4.6.4c-.4-6.9-.8-13.7-1.2-20.6-.1-1.4,0-2.9-.1-4.3a3.8,3.8,0,0,0-.3-2.2,1.8,1.8,0,0,1-.7-1.6c-.3-3.4-.4-6.7-.6-10.1s-.5-7.6-.6-11.4c.2-2,2-3.1,2.7-4.8s.8-.6,1.2.1l.8,1.7A1.1,1.1,0,0,1,164.6,115.2Z" style="fill: #e35136"/>
        <path d="M122.2,167.1l3.5-50.6c0-.5,0-1.1.1-1.6a.8.8,0,0,1-.2-.7c.5-.7.4-2.1,1.4-2.1s1,1.2,1.5,1.9,1.4,1.3,1.7,2.3a51.7,51.7,0,0,1-.3,7.5c-.2,3.1-.4,6.3-.5,9.4s-.4,3.8-.4,5.8a1.5,1.5,0,0,1-.6,1.4,2.3,2.3,0,0,0-.3,1.5c0,7.4-.9,14.7-1,22.1,0,1.2-.3,2.3-.3,3.5A30.6,30.6,0,0,1,122.2,167.1Z" style="fill: #e35136"/>
        <path d="M93.6,160.1a1.8,1.8,0,0,1,1.3.6l-.4.4A2,2,0,0,1,93.6,160.1Z" style="fill: #949494"/>
        <path d="M210.1,128.1h1.3c1.6-.2,2,.4,2,2s-.5,1.7-1.7,1.6h-3.1c-.6,0-1.4.2-1.6-.6a4.4,4.4,0,0,1,0-2.5c.1-.4.6-.3,1-.4Z" style="fill: #ebefef"/>
        <path d="M210,137.8h-1.9c-.7,0-1.2-.2-1.2-1.1s.1-1.5,1.2-1.5h4.2c1,0,1.1.6,1.1,1.3s-.2,1.3-1.1,1.2Z" style="fill: #eaeded"/>
        <path d="M199.1,131.7a12.8,12.8,0,0,1-.3-3.5H202c1.5-.1,1.3.9,1.3,1.8s.2,1.9-1.3,1.8Z" style="fill: #ebeeee"/>
        <path d="M199.5,137.8v-1.9c.9-1.4,2.2-.6,3.3-.6s.5.9.5,1.5-.4,1-1.1,1Z" style="fill: #e9eded"/>
        <path d="M79.8,131.7H78.4c-1.6.2-2-.5-1.9-2s.3-1.7,1.6-1.6h3a2,2,0,0,1,1.8,3.1c-.2.4-.6.4-.9.4H79.8Z" style="fill: #ebefef"/>
        <path d="M91.6,128.1a11.1,11.1,0,0,1-.3,3.5H88.6c-2,0-2.6-.9-2.1-2.9s.6-.7,1.1-.7Z" style="fill: #ebeeee"/>
        <path d="M79.9,135.2h1.8c1-.1,1.3.3,1.3,1.3s-.3,1.4-1.3,1.3h-4c-1,0-1.2-.4-1.2-1.3s.2-1.4,1.1-1.3Z" style="fill: #eaeded"/>
        <path d="M91,136.2v1.6H87.6c-.5,0-1,0-1.1-.7s-.2-1.2.4-1.7,3.5-.3,3.9,0S91,136,91,136.2Z" style="fill: #e9ecec"/>
        <path d="M144.2,46.2c.5-.1.6.3.7.6s.4,1.4.4,2.1c-1.4,10.9-3,21.7-4.5,32.5-.3,1.9-.6,3.8-.8,5.7a2.8,2.8,0,0,1-1,2.1,2.6,2.6,0,0,1-1.4.3c-3.4-.1-6.8.3-10.1-.2-1.1-.7-.6-1.6-.3-2.4,1.1-3.1,2.4-6.1,3.7-9.1,3.7-8.7,7.1-17.5,10.7-26.2a26.4,26.4,0,0,1,2.3-4.6Z" style="fill: #fefefe"/>
        <path d="M143.9,47.1a10.4,10.4,0,0,1-1.2,3.3L128.3,85.7c-.4,1.1-.8,2.2-1.1,3.3a2.8,2.8,0,0,1,.6,2.1q0,7.2,0,14.4a2.9,2.9,0,0,1-.4,1.8.5.5,0,0,1-.6.2,3.1,3.1,0,0,1-.6-2.4c0-4.4,0-8.9,0-13.3,0-1.9-.2-2-2-2h-6.9a3.6,3.6,0,0,1-2.2-.4l-.2-.2,15.3-22.3,12.6-18.5C143.1,47.9,143.2,47.2,143.9,47.1Z" style="fill: #e35136"/>
        <path d="M102.6,107.4V89.1l.3-.3c1.6.5,3.2.2,4.7.2h6.9c.6.6.5,1.4.5,2.1q0,6,0,12.1a9.4,9.4,0,0,0,.3,2.6,5,5,0,0,1,0,2c-.1.5-.5,1-.6,1.5a6,6,0,0,1-5.8,3.8C105.2,113.2,103.1,111.3,102.6,107.4Z" style="fill: silver"/>
        <path d="M114.8,106.2a2.7,2.7,0,0,1-.2-1.7q0-7.7,0-15.4h.5a3.1,3.1,0,0,1,.5,2c0,4.3,0,8.6,0,13C115.5,104.8,115.6,105.6,114.8,106.2Z" style="fill: #d0d0d0"/>
        <path d="M145.5,45.9h.4a8.1,8.1,0,0,0,.9,1.3v.2a121.7,121.7,0,0,1,5.6,13.1c2.7,6.8,5.6,13.6,8.3,20.4.9,2.1,1.8,4.2,2.5,6.4s.6,1.6-.4,2.1a44.1,44.1,0,0,1-11.5-.1,3,3,0,0,1-1-2.3c-1.1-8.2-2.3-16.3-3.4-24.5-.6-4.8-1.6-9.6-1.8-14.5A8.3,8.3,0,0,1,145.5,45.9Z" style="fill: #fefefe"/>
        <path d="M163.3,89.1c-1.9-6-4.6-11.7-6.9-17.5-3.1-7.8-6.3-15.5-9.4-23.3-.1-.3-.6-.6-.1-1s.9.8,1.2,1.3c2.7,3.9,5.5,7.7,8.1,11.7,5.5,8.6,11.6,16.9,17.3,25.4a24.6,24.6,0,0,0,2.2,3.4l-.2.2a3.9,3.9,0,0,1-2.3.4h-6.9c-1.7,0-1.8.2-1.8,1.9,0,4.5,0,8.9,0,13.4a3.4,3.4,0,0,1-.5,2.5.4.4,0,0,1-.6,0,3,3,0,0,1-.5-2.1q0-7,0-14A3,3,0,0,1,163.3,89.1Z" style="fill: #e35136"/>
        <path d="M187.8,89.1v18.3c-.5,4.4-3.9,6.7-8.3,5.5-1.9-.5-2.9-1.9-3.8-3.5s-.5-1-.6-1.5a5,5,0,0,1,0-2,11.5,11.5,0,0,0,.3-3.4c0-3.8,0-7.6,0-11.5,0-.7-.1-1.4.5-2h11.9Z" style="fill: silver"/>
        <path d="M175.9,89.1q0,7.7,0,15.4a2.7,2.7,0,0,1-.2,1.7c-.7-.5-.7-1.3-.7-2,0-4.4,0-8.9,0-13.3a3,3,0,0,1,.5-1.8h.5Z" style="fill: #d0d0d0"/>
        <path d="M146.9,47.2c-.8-.1-.8-.7-.9-1.3l.9.6Z" style="fill: #ee9382"/>
        <path d="M102.6,107.4c1,3.7,3.4,5.4,6.7,5.2a5.8,5.8,0,0,0,4.9-3.4c1.1.3.8,1.1.8,1.9s0,1.2-.5,1.6a1.3,1.3,0,0,0-.3,1.3c-1.8,2.8-4.6,2.9-7.4,2.5a4.4,4.4,0,0,1-3.8-3.5c-.2-.8-.5-.3-.8-.3s-.1-2.1-.3-3.2A4.3,4.3,0,0,0,102.6,107.4Z" style="fill: #b23927"/>
        <path d="M102,109.4c.7,1,.1,2.2.3,3.2s.1,1.3-.2,1.9h-.1c-1.9,2.1-4.3,2.3-6.9,2.1l.2-3.9C98.1,112.8,100.6,112.3,102,109.4Z" style="fill: #bf8f8b"/>
        <path d="M176.1,109.2c2.1,3.7,4.6,4.1,8.1,3s3.1-2.6,3.6-4.7c-.1.8.6,1.2.7,2s.8,2.4-.2,3.6-.3-1.4-.8-.1a6.4,6.4,0,0,1-10.9,1.5l-.4-.5-.3-1.3c-.6-.5-.4-1.3-.5-1.9S175.2,109.3,176.1,109.2Z" style="fill: #b23927"/>
        <path d="M188.2,113c.1-1.2-.4-2.4.2-3.6,1.4,2.9,3.9,3.4,6.8,3.2l.3,3.9c-2.7.2-5.2.1-7-2.3C188.1,113.9,188.7,113.3,188.2,113Z" style="fill: #bf8f8b"/>
        <path d="M145.5,45.9c.8,6.1,1.6,12.2,2.4,18.3q1.6,11.8,3.2,23.6c.1.4.2.8.3,1.3A2.6,2.6,0,0,1,152,91q0,5,0,10.1a2.5,2.5,0,0,1-.5,1.8c-1.4,0-1-1.1-1.1-1.8-.1-2.6,0-5.1,0-7.7,0-.4,0-.9,0-1.3,0-2.2-.1-2.3-2.2-2.3h-6c-2,0-2.1.1-2.1,2.1,0,4.4,0,8.8,0,13.2,0,.8.3,1.9-1,2.1a2.7,2.7,0,0,1-.6-2.1q0-6.8,0-13.7a3,3,0,0,1,.6-2.3c.8-5.8,1.7-11.7,2.5-17.5q1.7-11.8,3.3-23.6c.1-.4.1-.7.1-1.1Z" style="fill: #e35136"/>
        <path d="M128.4,140.3l1.3-22.4c0-.7,0-1.4,0-2.1s-1-2.6.3-3.8a2.7,2.7,0,0,1,1.7-.1,5.7,5.7,0,0,0,6.5-3,2,2,0,0,1,.9-.9c.9-.1,1,.7,1.3,1.2s2.2,2.8,4.3,2.9a5.6,5.6,0,0,0,5.4-2.8,4.9,4.9,0,0,1,.9-1.3h.5a2.5,2.5,0,0,1,1,1.2,5.5,5.5,0,0,0,5.9,2.8,4.2,4.2,0,0,1,1.9-.1c1.2.7,1.1,1.8.9,2.8s-.2,1.4-.4,2l1.3,23.5c-.1,2.9-.3,3-3.2,2.5l-1.1-.2c-5.6,0-11.2-.7-16.8-.3-3.3.3-6.6,0-9.9.5S128.5,143.2,128.4,140.3Z" style="fill: #6b1912"/>
        <path d="M176.1,109.2c-.5.4-.2,1-.3,1.5s0,1.6-.6,2.3c-1.4,3.5-5.5,4.8-9.1,2.9-.5-.3-.9-.8-1.6-.7v-1c-.3-1.4-1.4-2.7-.3-4.2s1.3.4,1.8.8a5.5,5.5,0,0,0,8.2-1.3c.4-.6.6-1.3,1.4-1.5A1.8,1.8,0,0,1,176.1,109.2Z" style="fill: #bf8f8b"/>
        <path d="M175.2,113l.6-2.3v1.9Z" style="fill: #d1aeab"/>
        <path d="M114.6,111.1c-.2-.6.2-1.3-.3-1.9a1.7,1.7,0,0,1,.6-1.1c.8-.1.9.6,1.2,1.1a5.4,5.4,0,0,0,8.5,1.6c.5-.4.9-.9,1.7-.7s.1,2.8-.2,4.2v.7a7.7,7.7,0,0,1-5.5,1.7,5.2,5.2,0,0,1-5.1-3.6C114.7,112.4,114.8,111.7,114.6,111.1Z" style="fill: #bf8f8b"/>
        <path d="M114.6,111.1l.6,1.9-.6-.3Z" style="fill: #d9bcb9"/>
        <path d="M164.6,110.1c-.8,1.4.1,2.8-.1,4.2-.7-.4-.6-1.3-1.2-2.1,0,2.2-2.1,3-2.5,4.7,0-1,0-2-.1-3.1s.1-1.2-.6-1.5-.1-.2,0-.3a48.2,48.2,0,0,0,3.4-4.5h.2A2.9,2.9,0,0,1,164.6,110.1Z" style="fill: #b33a28"/>
        <path d="M125.9,114.2c-.1-1.4.7-2.8-.1-4.1a3,3,0,0,1,1-2.6h.2c.9,1.7,2.5,3,3.3,4.8-1.2,1-.3,2.4-.7,3.6a6.6,6.6,0,0,1-2.6-3.6C126.5,112.9,126.7,113.8,125.9,114.2Z" style="fill: #b33a28"/>
        <path d="M130.3,112.3c-1.6-1.3-3.1-2.6-3.3-4.8q0-8.2,0-16.5c0-.6.1-1.3.1-1.9h11.9v18a.7.7,0,0,1-.1,1C137.3,112.4,134.8,113.2,130.3,112.3Z" style="fill: silver"/>
        <path d="M126.9,107.5a3.9,3.9,0,0,1-1,2.6c-2.5,4-9.1,3.3-10.7-1.4l-.3-.5v-1.9q0-7.7.1-15.4c0-.6.1-1.2.1-1.7h10.2c1.3,0,1.7.3,1.7,1.6C126.8,96.3,126.8,101.9,126.9,107.5Z" style="fill: #b13424"/>
        <path d="M163.4,107.4c-.2,2.2-1.7,3.5-3.3,4.8l-1.7.3c-3.4.3-5.3-.5-7-4.5-.9-1.5-.3-3.1-.4-4.7l.3-.5V89.1h11.9q.1,7.9.1,15.8C163.4,105.7,163.4,106.6,163.4,107.4Z" style="fill: silver"/>
        <path d="M164.6,110.1a3.9,3.9,0,0,1-1-2.6c0-5.6.1-11.2,0-16.8,0-1.3.4-1.7,1.7-1.6h10.2c.3,3.4.1,6.8.1,10.2s.1,4.6.1,6.9v1.9c-1.2,2.9-3.2,4.8-6.7,4.5A5.6,5.6,0,0,1,164.6,110.1Z" style="fill: #b13424"/>
        <path d="M151.2,102.9v.4c-.3,1.6.1,3.2-.2,4.8a5.4,5.4,0,0,1-3.9,4.2c-2.1.5-4.3.7-6-1.3a14,14,0,0,1-2.1-3v-1c.4-.5.2-1.1.2-1.7,0-4.9,0-9.8,0-14.7,0-1.3.4-1.7,1.7-1.6h8.5c1.1,0,1.5.3,1.5,1.5-.1,3.5,0,7.1,0,10.6A3,3,0,0,0,151.2,102.9Z" style="fill: #b13424"/>
        <path d="M151,108.1c.1-1.6-.3-3.3.2-4.8v4.8Z" style="fill: #9c2c1f"/>
      </g>
    </g>
  </g>
</svg>
