<svg xmlns="http://www.w3.org/2000/svg" viewBox="0 0 290.5 208.2">
  <title>proyecto2</title>
  <g id="ad3e1371-3cd3-4b82-b07b-f85680a3c214" data-name="Capa 2">
    <g id="f98f8645-64e4-4f4f-a836-8ede7bde99c7" data-name="Pagina Movil">
      <g id="40aa2169-18c5-4dc1-8880-d07205d8c43b" data-name="proyecto 2">
        <path d="M145.3,0H290.5q-.1,104.1,0,208.2H0Q.1,104.1,0,0Z" style="fill: #1fa3b5"/>
        <path d="M145.2,22.1c44.7-.2,83.5,36,82.6,83.9-.9,45-38.4,81.2-84.8,80.1a82,82,0,0,1,2.2-164Z" style="fill: #df5b49"/>
        <path d="M84.3,115.4c-3.2-1.2-3.8-4.2-1.3-6.4,7.8-6.7,15.5-13.5,23.5-20,10.3-8.4,20.3-17.3,30.5-25.9a3.7,3.7,0,0,1,2.2-.9c21.6-1.7,39.8,5.2,54.7,21,9.9,10.5,15.2,23.1,16.6,37.4.4,4.1.8,8.3-.6,12.4a17.5,17.5,0,0,1-15.6,11.8H85.9c-1.6,0-3-.2-3.9-1.6s-.4-4.3,2.3-5.4a2.7,2.7,0,0,1,2.2-.6H192.8c3.5,0,6.4-1.1,8.4-4a11,11,0,0,0,.9-11.5c-1.8-3.8-5.1-5.4-9.2-5.5H148.4c-3,0-3,0-3.3,3,.1,1.2.1,2.3.1,3.5s-.5,2.8-2.2,3.1a.8.8,0,0,0-.7.8,11.7,11.7,0,0,1-.1,2.2,33.1,33.1,0,0,1,.1,4.1,4.4,4.4,0,0,1-1.2,3.1c-1.8,1.3-2.8,1.3-4.6,0s-1.3-2.7-1.3-4.3a28.8,28.8,0,0,1,.1-3,9.8,9.8,0,0,1,0-2.3,51,51,0,0,1,0-6.9c-.3-4.2-.2-3-7-3.3-3.5-.2-7-.1-10.5,0-6,.3-5.9-.7-6.3,2.9a26.4,26.4,0,0,1,0,4.3,2.2,2.2,0,0,1-1.9,2.3,2,2,0,0,1-2.5-1.3c-.1-1.6,0-3.2,0-4.8s0-1,0-1.5c-.1,4.1.3,8.1.1,12.2-.6,1.8-1.8,2.6-3.4,2.4a3.1,3.1,0,0,1-2.5-3.3,4.1,4.1,0,0,0,0-.9,10.2,10.2,0,0,1,0-2,57.1,57.1,0,0,1,0-7.2c-.2-2.9-.2-2.9-3.2-2.9H86.5A2.7,2.7,0,0,1,84.3,115.4Z" style="fill: #5b2b0b"/>
        <path d="M141.1,127.4v-.2c.5-1.7,1.6-1.6,2.6-1.6h48.9a8.1,8.1,0,0,0,2.8-.3,2.8,2.8,0,0,0,2-3.1,2.4,2.4,0,0,0-2.6-2.3H147.3c-1,0-2.1.3-2.8-.8-.2-3.7-.2-3.7,3.4-3.7h44.2c4.7,0,8.6,1.6,10.6,6,3.4,7.4-.6,16.5-9.9,16.5H83.7c.3-3.3,1.8-2.9,3.1-2.9h47.1a4.6,4.6,0,0,1,2.9.7,3.3,3.3,0,0,0,3.9,0,5.3,5.3,0,0,1,3.2-.7H195a2.8,2.8,0,0,0-.1-5.6H144.4C143.2,129.1,141.8,129.5,141.1,127.4Z" style="fill: #fefefe"/>
        <path d="M136.7,135.5H84.3a17.4,17.4,0,0,1,0-7.2,2.3,2.3,0,0,1,1.9-.6H100a2.6,2.6,0,0,1,1.8.5c0,.3,0,.5,0,.8a2.4,2.4,0,0,0,1.9,2.7,2.4,2.4,0,0,0,3-1.7c.3-.6-.2-1.4.5-1.9a2.7,2.7,0,0,1,1.7-.3h24.8a2.4,2.4,0,0,1,2.1.6c0,1.4.1,2.8,0,4.1A4.1,4.1,0,0,0,136.7,135.5Z" style="fill: #eec74a"/>
        <path d="M101.8,118.9q0,3.7,0,7.3a2,2,0,0,1-1.9.7H86.2a2.2,2.2,0,0,1-1.9-.7v-7.3a2.3,2.3,0,0,1,2-.7H99.7C100.5,118.2,101.3,118.1,101.8,118.9Z" style="fill: #eec74a"/>
        <path d="M101.8,118.9H84.3v-3.5h16.4c.9,0,1.2.3,1.1,1.2S101.8,118.1,101.8,118.9Z" style="fill: #fefefe"/>
        <path d="M84.3,126.2h27.1c-7.3,3-14.7,2.1-22,2.2H84.3Z" style="fill: #fefdfc"/>
        <path d="M148.4,102.8a17.6,17.6,0,0,1-8.8-4.3,15.9,15.9,0,0,1,10.3-27.5,16.6,16.6,0,0,1,12.2,4.6,3.1,3.1,0,0,1,2.1,1.6c3.8,5.6,4.3,11.6,1.1,17.5s-8.4,8.8-15.2,8.7A1.8,1.8,0,0,1,148.4,102.8Z" style="fill: #d05322"/>
        <path d="M141.6,128.4h52.7c2.9,0,4,1.3,4.1,4.6a2.3,2.3,0,0,1-2.1,2.4c-1.9.1-3.8.1-5.7.1H140.6c1-1.1.9-2.4.9-3.7S141.6,129.5,141.6,128.4Z" style="fill: #eec74a"/>
        <path d="M144.5,119h49.7c2.7,0,4,1.2,3.9,3.6h0c-1.3,3.8-3.1,3.4-4.8,3.4H141.6c-.1-.7-.2-1.3.9-1.1s1.9-.6,1.9-1.9S144.5,120.4,144.5,119Z" style="fill: #eec74a"/>
        <path d="M148.4,102.8c5.1.4,9.7-.7,13.5-4.4a15.9,15.9,0,0,0,.8-22l-.6-.7c.4-.4.7-.3,1.2-.1,9.8,3.7,13.3,16.1,7,24.5a16.3,16.3,0,0,1-21.7,3.6C148.4,103.6,146.7,103.3,148.4,102.8Z" style="fill: #3f1e07"/>
        <path d="M135.8,119v7.1a2.2,2.2,0,0,1-2,.7H108.9a2.5,2.5,0,0,1-1.8-.5c-.2-.8-.7-1.7.2-2.4a2,2,0,0,0,2.6,1c1-.3,1-1.2,1-2.1s0-2.7.1-4a2,2,0,0,1,1.9-.7h19.1A6.4,6.4,0,0,1,135.8,119Z" style="fill: #eec74a"/>
        <path d="M135.8,119c-8.3-.3-16.5-.1-24.8-.2-.2-3.5-.2-3.5,3.3-3.5,6.6,0,13.1.1,19.7-.1,1.7,0,2.1.5,1.9,2A15.4,15.4,0,0,0,135.8,119Z" style="fill: #fefefe"/>
        <path d="M107,126.2h28.7v2.2H107.1A2.6,2.6,0,0,1,107,126.2Z" style="fill: #fefdfc"/>
        <path d="M107,126.2a5.4,5.4,0,0,0,0,2.3c-.1.5.1,1.2-.3,1.6,0-4.3,0-8.6,0-13,0-.6-.2-1.2.2-1.7,1,1.7-1.1,3.7,2.3,5.1v2.4C106.4,123.8,107.1,125,107,126.2Z" style="fill: #caa23c"/>
        <path d="M107.3,118.9c-.8-1.1-.1-2.3-.4-3.5C107.8,116.5,107.1,117.7,107.3,118.9Z" style="fill: #d5c9c1"/>
        <path d="M151.5,75.6c-.4.6-.9.6-1.5.7-5.6.5-9.3,4-10.2,9.5-.1.9.3,2.5-1.3,2.2s-1.1-1.7-.9-2.8a12.8,12.8,0,0,1,10.9-11.1c1-.2,2.1-.5,3,.5A.7.7,0,0,1,151.5,75.6Z" style="fill: #eeb4a2"/>
        <path d="M151.5,75.6q0-.5,0-1T151.5,75.6Z" style="fill: #d66337"/>
      </g>
    </g>
  </g>
</svg>
