<svg xmlns="http://www.w3.org/2000/svg" viewBox="0 0 290.5 208.2">
  <title>proyecto1</title>
  <g id="7e03ee12-fad6-4745-9c4b-96484d74512f" data-name="Capa 2">
    <g id="29f8fe22-25b6-406a-b7f4-62a8095ccae4" data-name="Pagina Movil">
      <g id="4252bfa4-29df-4187-877d-e06ddb199e11" data-name="proyecto 1">
        <path d="M145.3,0H290.5q-.1,104.1,0,208.2H0Q.1,104.1,0,0Z" style="fill: #cbb1a2"/>
        <path d="M145.1,22.1c44.8-.3,83.6,36,82.6,83.8-.9,45.1-38.5,81.2-84.6,80.2a82,82,0,0,1,1.9-164Z" style="fill: #334d5c"/>
        <path d="M153.1,89.1c6.1.1,12.2-.3,18.3.6a47.9,47.9,0,0,1,22.9,9.5,24.6,24.6,0,0,1,6.9,8c.9,2.9,1,5.8-.7,8.5-.5.7-1.3.6-2.1.6h-8c-.4,0-1.1-.3-1.2.5a6.6,6.6,0,0,0,3,.6h5.4c1.4,0,1.9.8,1.3,2.1a15.3,15.3,0,0,1-3.4,4.6c-7.3,7.1-16.1,10.9-26,12.1a76,76,0,0,1-9.7.6H110.4a26.7,26.7,0,0,1-17.1-5.8,27.6,27.6,0,0,1-10.8-19.6,19.3,19.3,0,0,1,.8-6.4c4-8.2,10.5-13.2,19.3-15.3,4.3-1,8.7-.6,13.1-.7a2.2,2.2,0,0,1,2-.7h33.2A3.9,3.9,0,0,1,153.1,89.1Z" style="fill: #eec74a"/>
        <path d="M83.3,105.1c-.4,4.5-.2,9.1,1.5,13.3,4,9.9,11.2,15.8,21.9,17.4a37,37,0,0,0,5.7.3H161a52.9,52.9,0,0,0,22.8-4.7c5.7-2.7,10.6-6.3,14.2-11.6.3-.5,1-1.1.6-1.7s-1.1-.2-1.7-.2h-7.2a2.9,2.9,0,0,1-1.7-.3c.4-.9,1.3-.7,2.1-.8h9.3a4.4,4.4,0,0,0,1.7-.2c-.2-.5-.9-.5-1-1a24,24,0,0,0,1-8.4c3.7,6.5,3.7,13.1.4,19.7s-8.4,9.9-14.3,13a46.5,46.5,0,0,1-21.7,5.5h-53c-4,0-8,.1-11.9-1a28.3,28.3,0,0,1-18.1-38.1Z" style="fill: #d6b341"/>
        <path d="M115.9,69.8a1.9,1.9,0,0,1,2.1-1.6h25.2a2.1,2.1,0,0,1,2.1,1.4l6.2,16.6c0,.8-.6.9-1.2,1H118.1c-2.1-.1-2.3-.2-2.3-2.3q0-6.8,0-13.6A4,4,0,0,1,115.9,69.8Z" style="fill: #eec74a"/>
        <path d="M89.4,55.9a8.1,8.1,0,0,1,8.2-8.2c4,0,8.1,2.7,8.3,8.3s-4,8.2-8.4,8.2A8.3,8.3,0,0,1,89.4,55.9Z" style="fill: #4e6f7c"/>
        <path d="M115.9,69.8c0,5,.1,9.9,0,14.9,0,1.5.5,1.9,1.9,1.9h31.8a2.6,2.6,0,0,0,1.8-.3c1.1.6.9,2,1.6,2.9H115.7c0-5.1,0-10.2.1-15.3A15.5,15.5,0,0,1,115.9,69.8Z" style="fill: #d6b341"/>
        <path d="M104.8,66.6a5,5,0,0,1,5.2,4.9,5.1,5.1,0,0,1-5.4,5,5.2,5.2,0,0,1-5-4.9A5.1,5.1,0,0,1,104.8,66.6Z" style="fill: #4e6f7b"/>
        <path d="M119.2,51h3a6.1,6.1,0,0,1,6.2,6.2c.1,3.1,0,6.3,0,9.4,0,1.1-.5,1.3-1.5,1.4-2.7.1-2.7.1-2.7-2.5s0-5.2,0-7.8-.6-2.5-2.5-2.5h-2.2c-.6,0-.2-.3-.1-.5a2.9,2.9,0,0,0-.5-3.2A.5.5,0,0,1,119.2,51Z" style="fill: #152730"/>
        <path d="M206.7,119.1c0,5.1,0,10,0,15,0,.3.1.7-.4.8a1.1,1.1,0,0,1-.7-.3,4.5,4.5,0,0,1-1.1-2.1,18.4,18.4,0,0,1,0-10.7A3.5,3.5,0,0,1,206.7,119.1Z" style="fill: #edc74a"/>
        <path d="M206.7,106.6c0,2.2,0,4.5,0,6.7,0,.3.2.8-.2,1s-.8-.3-1-.6a6.3,6.3,0,0,1-1.1-2.5,18.7,18.7,0,0,1,.1-9.6,8,8,0,0,1,.7-1.8c.3-.5.6-1.2,1.2-1s.3.9.3,1.4C206.7,102.3,206.7,104.4,206.7,106.6Z" style="fill: #edc74a"/>
        <path d="M218.4,122.5a3.1,3.1,0,0,1-3-3.1,3.1,3.1,0,0,1,3.1-3.1,3.2,3.2,0,0,1,3.1,3.2A3.1,3.1,0,0,1,218.4,122.5Z" style="fill: #99c9e1"/>
        <path d="M213.7,116.3l-.7-1.2a2.3,2.3,0,0,1,3.4-2.9,2.3,2.3,0,0,1-1.4,4.2l-1.3-.2Z" style="fill: #99c8e0"/>
        <path d="M213.6,116.3l.3.9a1.8,1.8,0,0,1-.8,2.4,1.7,1.7,0,0,1-2.2-.2,1.9,1.9,0,0,1,1.8-3.2l.9.2Z" style="fill: #98c8e0"/>
        <path d="M119.2,51.2c1.9.9,2.1,2.1.3,3.3s-1.6.2-2-.8a1.2,1.2,0,0,1-.3-1.6l.4-.4C118,51.3,118.5,50.9,119.2,51.2Z" style="fill: #1f93af"/>
        <path d="M210.4,115.6c-.1.8-.6,1.3-1.4,1.3a1.2,1.2,0,0,1-1.2-1.4,1.1,1.1,0,0,1,1.2-1.1C209.9,114.3,210.3,114.8,210.4,115.6Z" style="fill: #95c4db"/>
        <path d="M119.2,51.2a3.6,3.6,0,0,0-1.6.6c.2-.9.9-.9,1.6-.8S119.2,51.1,119.2,51.2Z" style="fill: #1c3d49"/>
        <path d="M117.2,52.2l.3,1.6C116.7,53.4,116.9,52.8,117.2,52.2Z" style="fill: #203843"/>
        <path d="M104.8,125.6c-2.6-2.3-4.3-5-4.2-8.6a10.2,10.2,0,0,1,6.6-9.3,10.6,10.6,0,0,1,11.6,2.7l1.4,1.7a10.1,10.1,0,0,1-1.9,13.3A10.6,10.6,0,0,1,104.8,125.6Z" style="fill: #9a7713"/>
        <path d="M163.4,125.9c-3.9-3-5.6-6.8-4.3-11.6a10.2,10.2,0,0,1,16.8-4.4l1.5,1.6a10.1,10.1,0,0,1-5.5,16.1A9.8,9.8,0,0,1,163.4,125.9Z" style="fill: #9a7713"/>
        <path d="M134.2,125.9c-4.5-3.8-5.8-8.5-3.6-13A10.1,10.1,0,0,1,147,110l1.6,1.8c2.6,4,2.7,7.9-.1,11.9a10.1,10.1,0,0,1-12.8,3.1Z" style="fill: #9a7713"/>
        <path d="M87.2,116.8c.7-12.3,9.2-21.5,21-23.1l2.9-.2c1.1,0,1.8.4,1.9,1.5s-.8,1.7-1.9,1.7a19.3,19.3,0,0,0-7.5,1.4c-8.2,3.6-12.5,9.9-13.1,18.8-.1,1.1-.4,1.9-1.6,1.9s-1.6-.9-1.6-2S87.2,116.5,87.2,116.8Z" style="fill: #fbf2d8"/>
        <path d="M163.4,125.9a11.3,11.3,0,0,0,8.1,1.1,10.1,10.1,0,0,0,6.8-13.7l-.8-1.8c2.9,2.8,3.5,6.2,2.5,10a10.1,10.1,0,0,1-16.6,4.4Z" style="fill: #c59f36"/>
        <path d="M134.2,125.9a11.6,11.6,0,0,0,7.8,1.2,10.2,10.2,0,0,0,7.2-13.8l-.6-1.5a10.1,10.1,0,0,1-.4,14C144.3,129.6,137.9,129.6,134.2,125.9Z" style="fill: #c59f36"/>
        <path d="M104.8,125.6a11.6,11.6,0,0,0,9.2,1.3,10.2,10.2,0,0,0,6.6-13.6l-.4-1.2a10,10,0,0,1-5.7,16.3C110.8,129.1,107.4,128.3,104.8,125.6Z" style="fill: #c59f36"/>
        <path d="M200.2,115.6h1.1c.8,0,1.6.1,1.6,1.1s-.9.9-1.6.9H188c-.5-.3-.8-.7-.5-1.3s.9-.6,1.5-.6Z" style="fill: #9c7814"/>
        <path d="M136.6,78.8h9.8c.8,0,1.6,0,1.7,1s-.8,1.2-1.6,1.2H126.9c-.8,0-1.7,0-1.7-1.2s.9-1,1.6-1Z" style="fill: #9a7713"/>
        <path d="M117.5,78.2c0-2,0-4,0-6.1a2.3,2.3,0,0,1,1.9-2.4c.4-.1.8-.1.9.4s-.2.6-.5.7-1.3,1.3-1.3,2.3c0,3.7,0,7.5,0,11.2,0,.5.3,1.3-.5,1.3s-.5-.8-.5-1.3c0-2,0-4,0-6.1Z" style="fill: #fbf2d7"/>
        <path d="M111,109.2a8,8,0,1,1,.1,15.9c-4.7,0-8.3-3.3-8.3-7.8A7.9,7.9,0,0,1,111,109.2Z" style="fill: #1f95b1"/>
        <path d="M176.8,117.2a8,8,0,1,1-7.9-8A7.9,7.9,0,0,1,176.8,117.2Z" style="fill: #1f95b1"/>
        <path d="M147.7,117.2a7.8,7.8,0,0,1-7.9,7.9,8,8,0,1,1-.1-15.9A7.9,7.9,0,0,1,147.7,117.2Z" style="fill: #1f95b1"/>
      </g>
    </g>
  </g>
</svg>
