<svg xmlns="http://www.w3.org/2000/svg" viewBox="0 0 290.4 212.7">
  <title>proyecto4</title>
  <g id="d2aaa567-0bd0-43cb-bf0d-1934770129ca" data-name="Capa 2">
    <g id="f44d1c37-6399-4168-9e59-36c8234377e9" data-name="Pagina Movil">
      <g id="c56bc778-7272-4b8a-9824-26e61557fc16" data-name="proyecto 4">
        <path d="M145.2,212.7H0Q.1,106.3,0,0H290.4q-.1,106.3,0,212.7Z" style="fill: #1037b4"/>
        <path d="M227.8,105.6a86.5,86.5,0,0,1-5,29.5,84.3,84.3,0,0,1-14.4,25c-9.9,12.3-22.7,20.4-37.5,25.6a76.5,76.5,0,0,1-48.8,1c-15-4.5-28.1-12.5-38.5-24.5a83.9,83.9,0,0,1-15-24.2,84.7,84.7,0,0,1,5.6-74.7c5.9-10.3,13.9-18.5,23.4-25.4,17.2-12.6,36.5-17,57.5-14.7a75.8,75.8,0,0,1,34.9,12.7c9.9,6.7,18.5,14.9,24.8,25.2a84,84,0,0,1,10.5,24.5A81.5,81.5,0,0,1,227.8,105.6Z" style="fill: #eec74a"/>
        <path d="M124.9,44H177a6.3,6.3,0,0,1,6.3,4.1l4.7,11a18.6,18.6,0,0,1,1.5,7.1c.1,8.2,0,16.4,0,24.7a8.7,8.7,0,0,1-.1,1c-.8-.1-.9-.7-.9-1.3a19.9,19.9,0,0,1-.1-2.3c0-6.6,0-13.1,0-19.7,0-3.3-1.1-4.4-4.4-4.4H144.5c-1-.1-1.5-1-2.1-1.6-4-4.1-8.1-8.2-12.2-12.2-1.5-1.5-3.2-2.9-4.7-4.4S124.5,44.8,124.9,44Z" style="fill: #797a7a"/>
        <path d="M124.9,44,141,59.8a22.3,22.3,0,0,1,2.9,3.4c-.5.9-1.4.8-2.1.8H110.5c-3.2,0-6.4-.4-9.4,1.3-.4-.2-.3-.5-.2-.8a19.2,19.2,0,0,1,1.5-5.7l4.8-10.9a6.2,6.2,0,0,1,6.1-4Z" style="fill: #626262"/>
        <path d="M101,65.2a4.8,4.8,0,0,1,4.3-2h78.8c3.7,0,4.9,1.2,4.9,4.9q0,10.7,0,21.4a4.8,4.8,0,0,0,.2,2.1,8,8,0,0,0-.2,2.6q0,32.3,0,64.6c0,3.4-1.4,4.8-4.8,4.8h-1.9a5.2,5.2,0,0,1-2.2.4h-8.6a5.3,5.3,0,0,1-2.2-.4H120.8a.4.4,0,0,1,0-.5c.9-.8,1.9-.5,2.9-.5h32.6c1.1,0,2.2.2,2.7-1.1a4.8,4.8,0,0,1,3-.5h22.4a2.1,2.1,0,0,0,1.9-1.9,14.3,14.3,0,0,0,.1-2.4q0-43.2,0-86.4c0-3.8-.3-4.1-4.1-4.1H107.6c-3.9,0-4.2.2-4.2,4.2,0,6.9,0,13.9,0,20.8a8.6,8.6,0,0,1-.2,2.9c-.7.9-1.2.5-1.7-.2a9.8,9.8,0,0,1-.7-1.4V66.1C101,65.9,100.7,65.4,101,65.2Z" style="fill: #939595"/>
        <path d="M159.1,161.7c.2.5.9.8.6,1.4s-.9.2-1.4.2H120.7a1.8,1.8,0,0,1-1.4.7q-5.1.2-10.3,0a4.5,4.5,0,0,1-1.2-.4h-2.9a3.9,3.9,0,0,1-4.2-3.9c0-.3,0-.5,0-.8q0-32.7,0-65.4c0-.4,0-.8,0-1.1l1.9,1.9.4.5a18.2,18.2,0,0,1,.4,4.3q0,28.8,0,57.5c0,4,.4,4.3,4.3,4.3h47.2a10.6,10.6,0,0,1,3.7.4Z" style="fill: #787979"/>
        <path d="M107.8,163.6c.5-.5,1.2-.3,1.8-.3h11.1v.3c0,1.4-.1,2.9,0,4.3s-.2,1.2-1.1,1.2H108.9c-.9,0-1.1-.3-1.1-1.1S107.8,165.1,107.8,163.6Z" style="fill: #4b4b4b"/>
        <path d="M169.4,163.6a1.3,1.3,0,0,1,1-.3h10.9a1.3,1.3,0,0,1,1,.3c0,1.4-.1,2.8,0,4.2s-.2,1.3-1.2,1.3H170.7c-1,0-1.3-.4-1.2-1.3S169.4,165,169.4,163.6Z" style="fill: #5d5d5d"/>
        <path d="M101,65.2l-.3.9a2.4,2.4,0,0,1,.2-1.6Z" style="fill: #7e7a6a"/>
        <path d="M102.7,94.5v-.3q0-13.1,0-26.1c0-2.4.5-2.9,2.9-2.9h78.7c2.4,0,2.9.5,2.9,3q0,45.2,0,90.3c0,2.6-.7,3.2-3.3,3.2H158.8c-1.9-1.1-3-2.8-4.3-4.4a1.2,1.2,0,0,1,0-1.6,4.2,4.2,0,0,1,2.8-.5h19.5a12.2,12.2,0,0,0,2.3-.1,3.1,3.1,0,0,0,2.7-2.7,13.1,13.1,0,0,0,.1-2.4q0-15.5,0-30.9a13.3,13.3,0,0,0,0-3.7c-.2-1.1,0-2.2-.1-3.3a3.8,3.8,0,0,0,.3-1.4c-.4-11.4-.1-22.9-.2-34.3,0-4.7-.7-5.4-5.4-5.4H113.3c-4.6,0-5.4.7-5.4,5.3,0,6.7,0,13.3,0,20a10.2,10.2,0,0,1-.2,2.9c-.8,1.1-1.6.6-2.2-.1A10.8,10.8,0,0,1,102.7,94.5Z" style="fill: #a2a5a5"/>
        <path d="M102.7,94.5c1.7,1.4,2.8,3.5,4.5,4.9a.9.9,0,0,1,.6,1c.3,4.6-.2,9.2,0,13.8.4,9.8.1,19.5.2,29.3,0,2.2,0,4.4,0,6.6,0,4.1.9,5,4.9,5h36.3a32.1,32.1,0,0,1,4.5.2c.6,0,.9.4,1,.9s3.3,3.3,4.2,5.5H105.3c-2,0-2.7-.8-2.7-3.2q0-21.5,0-43Q102.6,105,102.7,94.5Z" style="fill: #838585"/>
        <path d="M182.3,112a3.8,3.8,0,0,1,0,2.9,1.8,1.8,0,0,1-1.4,2,3.3,3.3,0,0,1-1.4.3c-4.3,0-8.6.2-12.9-.1h-1.5a32.8,32.8,0,0,1-4.6.1h-1.3c-1.2-.1-2.5.1-3.7.1a2,2,0,0,0-1.8,1.1,9.5,9.5,0,0,1-3.8,3.8,1.8,1.8,0,0,0-1,1.7c0,.9-.2,1.8-.2,2.7s0,.9,0,1.3a20.7,20.7,0,0,1,0,4.6c0,.5,0,1,0,1.5a121.2,121.2,0,0,1-.1,14c-.8,1.1-1.5.5-2.2-.2s-3.4-4.1-5.1-6.2a1.4,1.4,0,0,1-.1-.6,52.4,52.4,0,0,1,0-7c0-.5,0-1,0-1.5s-.1-3.1-.2-4.6a3.2,3.2,0,0,0,.1-1.3,20.6,20.6,0,0,0-.2-3A2.2,2.2,0,0,0,140,122a12.3,12.3,0,0,1-3.5-3.7,1.8,1.8,0,0,0-1.7-1c-1.2,0-2.4-.2-3.5-.1h-1.3a29.5,29.5,0,0,1-4.5-.1H124a18.1,18.1,0,0,1-2.5-.1H121a27.1,27.1,0,0,1-4.1-4.4c-.6-.8-1.2-1.6-.3-2.5a14,14,0,0,1,3.5-.1h14.5a2,2,0,0,0,2-1,11.9,11.9,0,0,1,3.8-3.9,1.4,1.4,0,0,0,.8-1.6c0-1.7,0-3.5.1-5.2s0-1-.1-1.5a45.8,45.8,0,0,1,.1-4.8,25.1,25.1,0,0,1,0-4.2c-.1-3.5-.5-7,.2-10.4a6.1,6.1,0,0,1,.9-.9c1.9-1.7,3-1.7,4.8,0l.9.9a7.8,7.8,0,0,1,.4,3.5c0,2.3.1,4.6-.1,6.9a26.6,26.6,0,0,1,0,4.2,24.6,24.6,0,0,1,0,4.8c0,.5,0,1,0,1.5s0,3.5.3,5.2a1.4,1.4,0,0,0,.9,1.5,9.7,9.7,0,0,1,3.9,3.8,2.4,2.4,0,0,0,2.4,1.2h23.3C181.3,109.9,181.9,110.4,182.3,112Z" style="fill: #b8bcbc"/>
        <path d="M107.5,100.1l-.3-.6q0-12.3,0-24.7c0-3.4,1.3-4.7,4.6-4.7H178c3.3,0,4.6,1.3,4.6,4.6q0,18.2,0,36.4c-1.1-.3-2.2-.6-2.5-2a15.7,15.7,0,0,0,.1-2.6q0-14.2,0-28.4a12.7,12.7,0,0,0-.1-2.1,3.1,3.1,0,0,0-2.7-2.8,13.7,13.7,0,0,0-2.4-.1H115.5c-4.6,0-5.3.7-5.3,5.3,0,6.8,0,13.7,0,20.5a6.4,6.4,0,0,1-.3,2.9C108.4,102.5,107.8,102.1,107.5,100.1Z" style="fill: #939595"/>
        <path d="M181.1,116.2l1.3-1.3a3.1,3.1,0,0,1,.3,1.9q0,17.3,0,34.7c0,3-1.4,4.4-4.4,4.4H156.6a3.3,3.3,0,0,0-2,.3l-.6-.7c-.9-.2-1.6-.6-.8-1.7a5.6,5.6,0,0,1,2.8-.4h19.7c3.6,0,4.6-1,4.6-4.6,0-9.8,0-19.7,0-29.5A4.3,4.3,0,0,1,181.1,116.2Z" style="fill: #939595"/>
        <path d="M180.4,109.4l2.3,1.6a1.4,1.4,0,0,1-.3,1,3.5,3.5,0,0,0-3.4-1.7H155.4a2.2,2.2,0,0,1-2.4-1.4,7.7,7.7,0,0,0-4.1-3.9c-.7-.3-1.2-.7-1.1-1.5s1.5-.4,2.2,0a12.9,12.9,0,0,1,3.5,3.3c1.3,1.7,2.5,2.2,4.6,1.6l.9-.3c.7,0,1.3.7,2.1.5l4.4.2H167c3.8-.2,7.7-.1,11.5-.1C179.3,108.7,180,108.6,180.4,109.4Z" style="fill: #919393"/>
        <path d="M153,154.3l1,1.3a3.2,3.2,0,0,1-2,.3H111.8c-3.3,0-4.6-1.3-4.6-4.6q0-24.6,0-49.2a3.3,3.3,0,0,1,.3-2l1.9,2a.8.8,0,0,1,.5.6,32,32,0,0,1,.3,4.3,1.5,1.5,0,0,0,1.7,1.7,23.3,23.3,0,0,1,3.2.3h.5a1.3,1.3,0,0,1,.6,1.4c-.3.7-1,.7-1.7.7h-3.4c-2.3.1-3.3,2-2,3.9a2.4,2.4,0,0,1,.7,1.4,15.6,15.6,0,0,1,.2,3.4q0,13.9,0,27.9c0,.8,0,1.5,0,2.3s1.3,3.3,3.5,3.4H149a10.8,10.8,0,0,1,3.5.4Z" style="fill: #787979"/>
        <path d="M109.4,102.6V102q0-12.5,0-25c0-3.5,1.3-4.8,4.8-4.8h62.2c3.4,0,4.7,1.3,4.7,4.7q0,15.2,0,30.5c0,.7.3,1.6-.6,2H166.9a2.3,2.3,0,0,1-.8-1.9c-1.1-9.7-7-16.4-16.5-18.7a3.2,3.2,0,0,1-1.8-1c0-2.8,0-5.6,0-8.3a5.2,5.2,0,0,0-.3-2c-.5-1.6-1.4-2.3-2.7-2.2a2.5,2.5,0,0,0-2.5,2.2c-.6,2.2-.2,4.5-.3,6.7s0,2.5,0,3.7a3.2,3.2,0,0,1-1.7,1.1c-9,2.3-14.9,9.3-15.9,18.6-.1.9.1,1.9-1,2.3h-6a3.3,3.3,0,0,1-1.8-.5h-.3A14.4,14.4,0,0,1,109.4,102.6Z" style="fill: #a2a5a5"/>
        <path d="M152.7,154.2H113.4c-2.6,0-4-1.5-4-4.2q0-16.9,0-33.8h.1c3.9-.5,7.7-.9,11.5.4h.3a4.3,4.3,0,0,1,2.4,2,6.5,6.5,0,0,0,2,2,20.4,20.4,0,0,1,1.1,1.8,13.2,13.2,0,0,0,5.8,6.8l1.6,1.4c.8,1.9,2.7,2.8,3.8,4.5s3.4,3.7,4.1,6.3v.3a7.2,7.2,0,0,1,.7,3.9c0,.8,0,1.6,0,2.4s.3,2.3,1.6,2.7,2-.4,2.6-1.3.5-.7,1-.7S153,152.7,152.7,154.2Z" style="fill: #838585"/>
        <path d="M152.7,154.2a50.6,50.6,0,0,0-4.6-5.5q-.2-.1-.1-.2h.1V133.9a2.6,2.6,0,0,1,1.5-.8c8.2-2.1,13.6-7.1,15.9-15.3a2.8,2.8,0,0,1,.9-1.3h12.2a6,6,0,0,0,2.4-.3q0,16.6,0,33.2c0,3.6-1.3,4.8-4.9,4.8H152.7Z" style="fill: #a2a5a5"/>
        <path d="M150.7,111a6.2,6.2,0,0,1-4,8.5,6.1,6.1,0,0,1-7.5-6.9l.2-1.3c.1-2.5,2.8-4.3,4.6-4.6a6.2,6.2,0,0,1,6.8,3.9A.5.5,0,0,1,150.7,111Z" style="fill: #c9cece"/>
        <path d="M165.5,109.4h-4.9c-.9-.4-1-1.2-1.2-2a14.8,14.8,0,0,0-10.2-9.7,2.5,2.5,0,0,1-1.5-.9V92a1.9,1.9,0,0,1,2.2-.6c7.3,1.4,14.5,8.4,15.9,15.6C166,107.8,166.4,108.7,165.5,109.4Z" style="fill: #878989"/>
        <path d="M142,92v4.9c-.2.6-.8.8-1.3,1a15,15,0,0,0-10,10.7c-.1.5-.1,1.1-.8,1.3a39.4,39.4,0,0,1-4.7,0c-.8-.4-.8-1.2-.7-1.9A20.4,20.4,0,0,1,131.3,96a20.1,20.1,0,0,1,8.6-4.5C140.7,91.4,141.4,91.2,142,92Z" style="fill: #878989"/>
        <path d="M160.4,116.6h4.9c.7.6.5,1.3.3,1.9q-3.8,11.6-15.7,14.6a1.3,1.3,0,0,1-1.6-.5v-4.8a3.1,3.1,0,0,1,1.7-1.1,14.8,14.8,0,0,0,9.3-8.7C159.4,117.4,159.7,116.8,160.4,116.6Z" style="fill: #878989"/>
        <path d="M125.2,116.5h4.9a2.1,2.1,0,0,1,1.2,1.4,14.8,14.8,0,0,0,9.3,8.8,2.3,2.3,0,0,1,1.3,1v4.8c-.5.7-1.1.5-1.7.3-3.9-.8-6.9-3-9.8-5.5l-1.4-1.3a38.9,38.9,0,0,1-3.8-7.3C124.9,118.1,124.4,117.3,125.2,116.5Z" style="fill: #878989"/>
        <path d="M165.5,109.4c-1.4-8.7-7.3-15.2-15.5-17.2a7.8,7.8,0,0,0-2.2-.2V87.8c6.7.7,11.7,4,15.5,9.5a20,20,0,0,1,3.5,12.1Z" style="fill: #939595"/>
        <path d="M142,92c-7.6.7-15.1,7.7-16.7,15.5l-.3,1.9a.8.8,0,0,1-1.3,0c.1-11.1,7.6-20,18.4-21.6Z" style="fill: #939595"/>
        <path d="M159.1,108.4a.9.9,0,0,1-1.1,1h-3.4c-.8,0-1-.6-1.4-1.2-1.3-2.2-2.9-4-5.5-4.6V98.1c.5-.6,1.1-.4,1.8-.2a14.9,14.9,0,0,1,9.6,8.9C159.4,107.2,159.8,107.9,159.1,108.4Z" style="fill: #a2a5a5"/>
        <path d="M142,98.1v5.6a2.4,2.4,0,0,1-1.1,1.1,8.5,8.5,0,0,0-3.8,4,1.9,1.9,0,0,1-2,1.2h-2.8a1.3,1.3,0,0,1-1.5-.9c-.1-2.2,1-3.9,2.2-5.5a14.2,14.2,0,0,1,7.3-5.5C140.9,97.8,141.5,97.6,142,98.1Z" style="fill: #a2a5a5"/>
        <path d="M121,116.5h-9.8a4.7,4.7,0,0,1-1.9-.3,2.9,2.9,0,0,1-1.4-3.7,3.1,3.1,0,0,1,3.5-2.1h4.6a.3.3,0,0,1,.4,0C117.5,112.8,119.7,114.3,121,116.5Z" style="fill: #949898"/>
        <path d="M148.2,126.6c0-.5,0-1,0-1.4s.1-3.4,2.2-4.2a5.7,5.7,0,0,0,2.8-3.2,2,2,0,0,1,2.1-1.3h3.8c.5.6.2,1.2-.1,1.8a15,15,0,0,1-9.1,8.4C149.3,126.9,148.7,127.2,148.2,126.6Z" style="fill: #a2a5a5"/>
        <path d="M131.3,116.5h1.3c2.2-.1,4.3-.3,5.3,2.4a4.1,4.1,0,0,0,2,2,3.4,3.4,0,0,1,2,4,13.8,13.8,0,0,0,0,1.6c-.5.5-1.1.3-1.6.1a14.9,14.9,0,0,1-9.1-8.8A1.3,1.3,0,0,1,131.3,116.5Z" style="fill: #a2a5a5"/>
        <path d="M148.1,148.4v.3l-.6,1.1a2.9,2.9,0,0,1-5.5-1.2c0-2.3,0-4.7,0-7,1.9,1.8,3.4,3.9,5.1,5.8A3.3,3.3,0,0,0,148.1,148.4Z" style="fill: #949898"/>
        <path d="M148.2,132.6a19.2,19.2,0,0,0,14.5-9.4,16.2,16.2,0,0,0,2.6-6.7h1.3c-1.4,8.9-9.6,16.6-18.3,17.4Z" style="fill: #939595"/>
        <path d="M142,141.3,133.6,131c.4-.5,1-.4,1.4-.1a19.6,19.6,0,0,0,5.8,2.2,2.3,2.3,0,0,1,1.1.8Z" style="fill: #a2a5a5"/>
        <path d="M116.5,110.4h-.4l-.6-.9h14.5c.4-.3.6-.9,1.3-.7s4.9.9,5.9-.8a9.4,9.4,0,0,1,4.8-4.3,1.4,1.4,0,0,1-.9,1.7,7.9,7.9,0,0,0-3.8,3.8,2.1,2.1,0,0,1-2.3,1.3Z" style="fill: #919494"/>
        <path d="M159.1,108.4c-1.7-5.7-5.4-9.2-11.2-10.4V96.8c6.2,1.1,10.1,4.8,12.2,10.6.2.7.4,1.3.6,2S159.5,109.1,159.1,108.4Z" style="fill: #7b7d7d"/>
        <path d="M131.3,108.7a1.5,1.5,0,0,1-1.3.7c.5-4.9,3.5-8.2,7.4-10.8a16,16,0,0,1,4.5-1.8v1.2C136.4,99.6,132.7,103.1,131.3,108.7Z" style="fill: #7b7d7d"/>
        <path d="M148.2,126.6c5.6-1.2,9-4.8,10.9-10h1.2c-2,6-5.9,9.9-12.2,11.2Z" style="fill: #7b7d7d"/>
        <path d="M131.3,116.5c1.8,5.2,5.3,8.6,10.6,10v1.2c-6-1.6-9.9-5.4-11.9-11.2Z" style="fill: #7b7d7d"/>
        <path d="M142,133.9c-3-.3-5.6-1.8-8.4-2.9l-1.3-1.3c-1.2-1.1-2.6-2-3.1-3.7l.2-.2a29.2,29.2,0,0,0,7.4,5.3,14.9,14.9,0,0,0,5.2,1.5Z" style="fill: #939595"/>
        <path d="M150.7,111a5.9,5.9,0,0,0-5.8-3.8,6.2,6.2,0,0,0-5.6,4.1c-.2-1.8,1.2-4,3.3-4.7s6.4-.4,7.9,2.9C150.8,110,151.1,110.5,150.7,111Z" style="fill: #b3b8b8"/>
        <path d="M125.2,116.5c.4,3,1.8,5.5,3.4,8,.3.4.7.8.8,1.4h0c-.7.3-.9-.3-1.3-.6a17.6,17.6,0,0,1-2-2.6c-.1-.7-.7-1-1-1.6a14.7,14.7,0,0,1-1.5-2.5c-.4-.7-.5-1.4.2-2Z" style="fill: #939595"/>
        <path d="M142.3,77.4c-.5-1.3.4-1.9,1.2-2.4a2.4,2.4,0,0,1,2.8,0c.8.6,1.7,1.2,1.2,2.4C145.7,75.3,144.1,75.3,142.3,77.4Z" style="fill: #919494"/>
        <path d="M123.9,116.5a20.5,20.5,0,0,0,1.3,4.5,30.9,30.9,0,0,1-3.9-4.5Z" style="fill: #a1a4a4"/>
        <path d="M109.4,102.6a60.4,60.4,0,0,1,5.8,6.8h-4.5c-.9,0-1.4-.4-1.3-1.4S109.4,104.4,109.4,102.6Z" style="fill: #848686"/>
        <path d="M126.2,122.6c1.3.9,1.9,2.5,3.2,3.3s2,2.5,2.9,3.9A15.7,15.7,0,0,1,126.2,122.6Z" style="fill: #797a7a"/>
      </g>
    </g>
  </g>
</svg>
