<svg xmlns="http://www.w3.org/2000/svg" viewBox="0 0 290 330.9">
  <title>agencia</title>
  <g id="72221c88-f5ba-432d-95cb-9736c8c71f18" data-name="Capa 2">
    <g id="65d6edd9-2d32-4f47-8ae2-21ac97e0a90a" data-name="Pagina Inicial - Movil">
      <g id="8c84c0d7-0770-4858-a235-16a8af91427a" data-name="La Agencia">
        <g>
          <path d="M0,88.9A14,14,0,0,1,6.3,78L138.7,1.5a14,14,0,0,1,12.6,0L283.7,78A14,14,0,0,1,290,88.9V241.8a14,14,0,0,1-6.3,10.9L151.3,329.2a14,14,0,0,1-12.6,0L6.3,252.8A14,14,0,0,1,0,241.8Z" style="fill: #fff"/>
          <g>
            <g>
              <g>
                <path d="M69.2,55.5a8.9,8.9,0,0,1,8.9-8.9H212.2a8.9,8.9,0,0,1,8.9,8.9v220a8.9,8.9,0,0,1-8.9,8.9H78.1a8.9,8.9,0,0,1-8.9-8.9Z" style="fill: #1d3248"/>
                <rect x="78.1" y="77.6" width="134.1" height="168.01" style="fill: #00ac58"/>
                <g>
                  <path d="M150.6,61.1H139.5a.4.4,0,0,1-.5-.5.5.5,0,0,1,.5-.5h11.1a.5.5,0,1,1,0,1Z" style="fill: #f6f7f8"/>
                  <path d="M154.3,63.6H136.1a.5.5,0,0,1-.5-.5.4.4,0,0,1,.5-.5h18.2a.5.5,0,0,1,.5.5A.4.4,0,0,1,154.3,63.6Z" style="fill: #f6f7f8"/>
                  <path d="M150.6,65.9H139.5a.5.5,0,1,1,0-1h11.1a.5.5,0,1,1,0,1Z" style="fill: #f6f7f8"/>
                </g>
              </g>
              <path d="M145.2,276.3a9.6,9.6,0,0,1-9.6-9.8,9.5,9.5,0,0,1,9.6-9.6,9.6,9.6,0,0,1,9.6,9.6A9.8,9.8,0,0,1,145.2,276.3Zm0-18.5a8.8,8.8,0,1,0,8.8,8.8A8.8,8.8,0,0,0,145.2,257.7Z" style="fill: #f6f7f8"/>
            </g>
            <rect x="89.2" y="86.6" width="111.7" height="31.62" style="fill: #f6f7f8"/>
            <g>
              <rect x="128.4" y="128.6" width="72.7" height="31.62" style="fill: #403f41;opacity: 0.400000005960465;isolation: isolate"/>
              <rect x="89.2" y="128.3" width="31.9" height="31.95" style="fill: #403f41;opacity: 0.400000005960465;isolation: isolate"/>
              <rect x="128.4" y="168" width="72.7" height="31.62" style="fill: #403f41;opacity: 0.400000005960465;isolation: isolate"/>
              <rect x="89.2" y="167.7" width="31.9" height="31.95" style="fill: #403f41;opacity: 0.400000005960465;isolation: isolate"/>
              <rect x="128.4" y="207.2" width="72.7" height="31.62" style="fill: #403f41;opacity: 0.400000005960465;isolation: isolate"/>
              <rect x="89.2" y="207.1" width="31.9" height="31.95" style="fill: #403f41;opacity: 0.400000005960465;isolation: isolate"/>
            </g>
          </g>
          <path d="M283.7,78,151.1,1.5a11.8,11.8,0,0,0-6-1.5V330.9a11.8,11.8,0,0,0,6-1.5l132.4-76.5a14,14,0,0,0,6.3-10.9V88.9A13.4,13.4,0,0,0,283.7,78Z" style="fill: #1e1919;opacity: 0.100000001490116;isolation: isolate"/>
        </g>
      </g>
    </g>
  </g>
</svg>
