<svg xmlns="http://www.w3.org/2000/svg" viewBox="0 0 62.2 62.2">
  <title>servicio-1</title>
  <g id="aeaa3c0b-a1e7-4d49-9460-3d97134b3427" data-name="Capa 2">
    <g id="54e5a0c7-6847-430a-9aea-8abb074dbe98" data-name="Pagina Inicial - Movil">
      <g>
        <circle cx="31.1" cy="31.1" r="31.1" style="fill: #00b0b0"/>
        <path d="M14.1,32.8V29.5a.5.5,0,0,1,0-.4l.2-.2,2.8-.4.6-1.4L16.1,25a.7.7,0,0,1-.1-.4.5.5,0,0,1,.1-.4l1.5-1.6A3.6,3.6,0,0,1,19,21.5h.4l2.1,1.6,1.4-.6q.1-1.5.4-3a.9.9,0,0,1,.5-.7h3.4l.4.4a.9.9,0,0,1,.2.5l.4,2.8,1.4.6,2.1-1.6h.7C34.1,23.1,35,24,35,24.4a.7.7,0,0,1-.1.4l-.8,1-.8,1.1.6,1.5,2.7.4.4.2.2.4v3.3l-.2.4-.4.2-2.8.4a9.3,9.3,0,0,1-.6,1.4l1.6,2.1a.6.6,0,0,1,.1.4.5.5,0,0,1-.1.4l-1.5,1.6a3.6,3.6,0,0,1-1.4,1.1h-.4l-2.1-1.6-1.4.6c-.1,1.3-.3,2.4-.4,3a.8.8,0,0,1-.5.6H23.8l-.4-.4-.2-.4-.4-2.8-1.4-.6-2.1,1.6h-.7c-1.7-1.6-2.6-2.5-2.6-2.9a.7.7,0,0,1,.1-.4l.7-.9.8-1.1a9.1,9.1,0,0,1-.6-1.5l-2.7-.4-.2-.2A1,1,0,0,1,14.1,32.8Zm8-4.9a4.2,4.2,0,1,1,.1,0ZM37,23.8c-1.8-.2-2.9-.4-2.9-.6V20.7c0-.2,1.1-.4,2.9-.6l.7-.9a8.4,8.4,0,0,1-.9-2.5h.1l.6-.4,1.1-.6.5-.3a2.6,2.6,0,0,1,.8.8l.9,1.2h1.1l1.7-2h.1l2.2,1.2H46a9.6,9.6,0,0,1-.9,2.5l.4.9c1.8.2,2.5.4,2.5.6v2.5c0,.2-.7.4-2.5.6l-.5.9a10.5,10.5,0,0,1,1,2.5h-.1l-2.2,1.3a2.6,2.6,0,0,1-.8-.8L42,26.4H40.9L40,27.6a2.6,2.6,0,0,1-.8.8L37,27.1h-.1a7.5,7.5,0,0,1,.8-2.5l-.6-.9H37Zm0,18.4c-1.8-.2-2.9-.4-2.9-.6V39.1c0-.2,1.1-.4,2.9-.6l.7-.9a8.4,8.4,0,0,1-.9-2.5h.1l.6-.4,1.1-.6.5-.3a2.6,2.6,0,0,1,.8.8l.9,1.2h1.1l1.7-2h.1L45.9,35H46a9.6,9.6,0,0,1-.9,2.5l.4.9c1.8.2,2.5.4,2.5.6v2.5c0,.2-.7.4-2.5.6L45,43a10.5,10.5,0,0,1,1,2.5h-.1l-2.2,1.3a2.6,2.6,0,0,1-.8-.8L42,44.8H40.9L40,46a2.6,2.6,0,0,1-.8.8L37,45.5h-.1a7.5,7.5,0,0,1,.8-2.5l-.6-.9H37ZM39.2,22a2.3,2.3,0,1,0,.7-1.6,2.2,2.2,0,0,0-.7,1.5Zm0,18.4a2.3,2.3,0,1,0,.7-1.6,2.2,2.2,0,0,0-.7,1.5Z" style="fill: #fff"/>
      </g>
    </g>
  </g>
</svg>
